<?xml version="1.0" encoding="utf-8"?><svg xmlns="http://www.w3.org/2000/svg" viewBox="0 0 1000 1000"><path d="M257.49 451.39c-13.72-18.73-24.2 2.29-37.19 12.34 16.26 16.35 35.41 11.27 37.19-12.34zm498.22-119.53c10.67 18.77 33.8 4.64 32-15.95-5.96-21.91-33.06-2.73-32 15.95zM544.76 169.13c30.86-14.85 5.12 7.69 31.15 25.12 25.99-24.19-36.13-68.25-31.15-25.12zM232.14 319.89c37.92-30.57-52-54.78-12.95-4.64 1.67 2.9 10.02 5.86 12.95 4.64zm-21.22 57.98c24.39-15.75 6.84-30.46-12-38.67-14.13 5.27-1.14 32.63 12 38.67zM243 284.34c22.05-14.51 3.43-30.34-1-51.35-15.83 20.14-14.69 36.15 1 51.35zm514.94-25.7c-19.53 22.57-20.27 28.3-4.82 44.37 17.31-13.93 18.5-27.21 4.82-44.37zm-9.4 203.73c-22.77 29.89 49.73 39.68 18.61 5.7-4.41-5.66-10.67-13.62-18.61-5.7zm28.51-76.02c14.17 25.89 25.74-9.63 27.31-22.79-21.27.09-31.14 9.16-27.31 22.79zM331.73 197.63c-24.39 11.23-28.84 24.42-12.7 39.53 16.82-11.1 14.41-24.94 12.7-39.53zm-34.54 48.04c10.15-13.27-4.6-30.66-28-30 8.33 11.74 8.73 34.01 28 30zm1.58-34.59c9.94-13.39 5-30.19-11.51-39.07-8.21 20.53-5.19 30.78 11.51 39.07zm351.97-67.6c-23.8 13.67-24.38 15-15.4 35.2 16.18-2.53 22.66-17.34 15.4-35.2zm34.5 107.28c8.11-19.63 3-30.79-16.62-38.92-.81 14.75-3.81 29.64 16.62 38.92zM364.32 170c8.47-21.57 4.72-28.49-20.66-39.37 2.19 15.25 2.24 29.94 20.66 39.37zm52.59-20.74c15.66-7.39 1.83-26.85 3.33-43-16.58 14.01-20.24 36.74-3.33 43zm167.29-32.5c-11.74 13.46-14.18 26.74-1.14 41.61 14.02-12.22 14.15-22.56 1.14-41.61zm114.33 137.1C713 273 730 248.32 723.79 232.74c-15.37 2.89-26.59 7.48-25.26 21.12zm-272.1-65.8c11.18-6.83 22-36.6 5.89-39.48-4.09 13.53-22.84 27.78-5.89 39.48zM703 225.16c17.87-8 8.87-22.58 10.66-38.32-20.02 8.97-22.95 26.16-10.66 38.32zm-241.13 22.4c29.73 4.77-9.05-17.59 3.71-41.34-18.95 18.98-19.37 30.09-3.71 41.34zM223.82 391.61c-16.76-11.45-19.7-11.14-38.06 3.55 14.85 11.68 21.24 11.24 38.06-3.55zM525.23 124c2.76-8.33 2.95-17.28 4.13-26-17.18-8.06-32.9 47.57-4.13 26zm-151.57 85.62c3.33-20.82 2.59-21.68-21.65-26.47-1.23 16.03 4.89 23.9 21.65 26.47zM683 200.28c11.11-13 9.51-19.83-9.68-35 1.89 11.81-10.05 26.46 9.68 35zm-32.33-5.09c-23.68-1-27.89 3.62-22.23 22.89 17.33-.08 19.93-10.66 22.23-22.89zm-412.4 194.97c10.54-11.89 8.17-23.35 1.71-35.7-14.86 14.1-15.46 23.17-1.71 35.7zm19.09-78.89c12.05-4.26 23.08-24.84 10.75-30.89-9.11 9.96-21.25 17.7-10.75 30.89zM390 175.45l8.25-34.64c-25.81 14.86-27.75 22.06-8.25 34.64zm79.63-21.23c18.11-8.47.1-24-16.62-23.93-1.55 13.13 4.37 20.59 16.62 23.93zm287.3 218.84c-2.35 11.84-8.38 23.24 5.08 32 11.14-8.16 7.04-29.59-5.08-32zM326 176.22c-1-8.2 6.29-24.47-6.53-25.64-7.75 10-10.55 47.58 6.53 25.64zM656.36 293l14.3-25.33c-25.73 1.96-29.88 10.2-14.3 25.33zm-327.45-40.95l17 30.95c13.15-19.7 8.62-27-17-30.95zm211.91-148.27l17.6 32.1c11.05-17.09 7.9-22.46-17.6-32.1zm109.87 161.46l4.51-35.36c-21.5 14.45-22.59 22.26-4.51 35.36zm86.45 68.59c13.31-17.65 8.4-28-13.4-33.63zM498.69 154.22c-3.64-9.15 5.39-33.35-8.94-31.9-5.75 10.17-11.42 34.05 8.94 31.9zm101.96-3.34l11.8 31.41c12.69-13.1 8.65-22.18-11.8-31.41zM446.13 97c-1.71 8.37-20.18 23.18-8.07 27.36 14.77-4.23 16.99-8.84 8.07-27.36zm18.65-6.63l10.6 30.83c13.36-14.73 10.37-22.2-10.6-30.83zM770.56 622c-73.73 26.51-55.17-23.87-168.28 25.41-73.73 7.6-63.88-148.08 7.16-169.7 43.6-30.3 75.57 16.36 65.92 51.82 15.76-9.42 37.62-11.76 9.8-25.82-6.94-8.3-4.37-15 14.42-14.31-34.11-14.67-47.07-32.25-1-26.76 32 7.09 43.33-7.32 57.44-27 27.46 26.78 43-5.34 2-9.4 8-11.56 14.94-16.87 27.16-7.09 51.83 16.2 9-47.36-43.62 16.94-48.35 37.77 6-70.74 8.85-95.47-15.3 35.12-63.28 48.52-27.18 4-12.09-12.39-12.26 2.8-18 11.52-14.75-6 1.45-21.07 9.06-29.2-30.86.51 12.51-22-.34-33.53-11.59 24.52-39.5 33.95-22.69 52.7h-15.58c18.91 8.52 60.19 59.5 17.41 47.26 6.82 16.51 30.88 21.65 9.68 34.88-35.66 22.93-70.37 16.09-39.51-21.58 45.82-24.27-4.27-2.25 6.33-50-12.17-7.2-3.38 44.49-5.89 46.23-39-42.41 14.76 42.78-30.5 8.52 19.45 35.65-45.37 42.06-73.66 60.79-40.78 20.79 24.61-79.67 58.18-86.21 36.26-15.57 52.68-48.32 70.17-77.6 3.2-29.27 58.26-30.77 1.24-40-1.2 13.75 6 24.35-14.5 12 9.62 24.23 7.2 30.6-15.81 43.77-10.52-17.55-19.12-62.49-38.71-63.17 34 44.68-5.25 11.34-12.38 33.33 31.33-2 55.91 37 10.46 15.28.19 19.12 9.62 26.92 27.36 27.62-2.61 21.36-35.44 40.64-72.48 39.65 10.12-11.69 31.2-42.93 1.66-24.73l-3.06-24.36c24.55 9.17 36.46-34.07 9.74-19.91-6-12.7 26.56-26.45 28.84-40 8.71-31.15 22.4-38.71-.31-67.14.56 55.42 13.77 36.41-21.55 32.87 20.58 28.31 17.06 29.35-13 49.7-9.11 2.08 23.49-92.7 21.92-94.17-14.05-2.34-17 22.13-37.29 10.23-3.72 17 26.13 15.9 19.42 32.35-7.31 9.14-6.72 36.24-21.24 33.76 1.67-15.5 4.4-24-13.52-29.52-14.54 12.05 4.47 12.05-7.46 26.63 22.6-7.67 14.39 15.88 17.77 28.16 11.29 102.08-5.57 158.34-50.11 24.51 16.75 3.37 16.4-11.49 22.75-21.42-32.23 11.29 3.17-70.81 30.07-74.74.41-.12.21-1.81.37-3.73-37.78-11.31 33.08-37.16-43-35.64 21 17.94 31.7 21.29 16.28 46.81-18.7-29.08-22.57-41.68-14.07-73.69C489.34 185.7 494 139 466.17 180.23c7.06 7.79 17.9-4.09 32.19-7.84-3.2 15.07-19.48 37.06 5.71 22 16.88 31 14.34 72.3-11.79 97.4-1.35-42.79 27.48-9-2.94-69.64-13.49 1.8 3.65 21 1.45 28.95-21.79 46.47 3.26 92.26 18.12 136.9-24.89 6.32-20.18-72.43-52.13-45.32 14.86 15.21 22.45-2 21 29.42C416 386.82 561.2 385.44 501 473c-59.64-100.1-58.36-111.51-51.81-223.65-12 42.22-38.27-35.57-19.05-38.3 6.08-3.51 14-12.25 12.17-19.57C422 205.26 416.21 189 404.5 182l27.75 99.36c-51.62-32.93-21.13-27.44-25.45-57.21-19.54 22.43-14.1-18.69-36.16 2.36 5.06 5.3 14.19 10.48 14.74 16.26-3.68 22.31 75.78 85.55 22.82 51.91-1.14 21.05 3.4 26.72 23.37 30.32-4.05 39.21-5.86 62.2-51.45 31.49.44-8.94 11.94-20.46-.52-22.51-12.68 27.46-17.23 7.52-25.39-9.68 20.5 3.65 29.94-5.73 25.17-22.78-24.09 12.71-24.6 6.38-16.7-14.11 23.25 8.75 47.85-13.95.84-10.38-8.16-8.66 25.92-12.76 6.41-29l-27.62 66.74c-22.14-20-30.3-27.56-12.85-50.23-28.09 15.11-11.36-7.16-21.27-14.79-11 16.15-38.42 1.22-9.88 22.08 21.38 16.7 31 46.62 44.36 69.19 35.24 51.25 117.46 66.94 115.74 138.51-18.59-35-100.08-27.88-87-71.19 13.2-30.56-4.46-16.65-15.51 2.24-22.05-11 8.39-21.43-.44-32.49-34.48 22.45-4.3-18-24.29-19v19.61c-26-13.34-16.27 24.54 6.34 7.65 45.2 63.46-37.86 54.05-46.55 10.63 18-12 19.33-17.34-4.73-16.81l19.58-35.63c12.29-3.36 21.82-8.31 6.68-15.58 11.55-11-3.61-14.54-7.5-21.43-5.06-10.86-8.71-21.57-21.58-27.75-17 11.61 42.3 32.16 1.31 33.16 24.33 11.7 20.14 39.9-.7 13l-5.57 2.82c26.49 62.94-14.89 15.43-29.35-6.61 6.89 27.45 59.46 152.68 2.6 89.43 3.38-10.18 22-21.74 9.15-27.13-8.11 5.22-13.19 21.35-24.11 11.7 5.37 16.52-32 13.66-27.59 26.77 6.17 2.07 12.73 6.33 18.41 5.61 32.54-24.53 25.18 32.17 67.23 22 43-4.09 51.48 3.26 16.83 27 12.08 2 12.08 2-10.58 26.58l12.34 5.47-19.74 31.82c33.73-1.34 12.88-43.84 39.17-20.57-12.55-25.65-7.58-60.82 32.05-60.1 106.24 13.15 121.38 196.08 34.37 179.57-47.28-20.88-85.39-32.09-137-25.87-32.92-26.42-150.34-28-48.5-8 55.81 24.64 40.77 30-12.47 33.32 27.84 26.84 131.46-36.92 106 1.83-27.37 32.91-64.85 25.65-106.07 20.64 11.7 13.66 46.37 11.19 70.64 16.58-57.37 54-22.13 7.17-7.46 44.13 8.62-37.88 40.59-82.58 86.66-69.56 7.77 3.25 10.13 8.27 2.7 12.31-10.24 5.57-21.9 9.25-31.57 13.17 27 6.11-6 29.65-12.4 42.94-23.14 27-19.36 24.25 11.41 7.07 1.23 13.32-2.42 19.09-15.9 25.76-37.79 7.78-25.53 85.19-13.49 24.88 5.89-5.16 21.73-8.44 28.63-5.26 30.94 14.23.05 27-1.06 43.17 29.45-27.79 42.49-13.93 26.84 16.69-3.75 12.16-5.34 23.95 6.6 35.29 4.77-12.94-4.77-38.46 11.12-40.69 7.1 14.31 33.22 74.67 27.43 37.19-29.69-73.59-127.23-213.18 50.95-179.74-27.51 6.07-98.71 45.21-84.28 52.52 15.94-3.55 27.72-5.94 25 13.34-7.45 44.54 10.29 7.79 12.82-11.79 4.87-31 55.38-29.09 81.22-42.72-7.8 40.15-77.16 46.81-71.57 90.48 5.61 20.08-26.39 40.62-4.23 55.84 11.12-50.85 34.34 30.64 18.79 51.72 15.31-17.74 16.94-35.07 14.88-56.72 39.19 14.4 30.25 39.67 25.06 64.3 32.93-41.4-1.35-66.85-31.95-97.48-11.7-15.74-8.44-26.9 10.95-41.92 6.12 16.5 18.9 63.32 17.69 24.09-11-39.16 38.41-66.95 23.95-10.29 22.05-16.41-.26-46 23.13-63.33 15.1 16.65-2.67 34.65 4 53.84 15.63-40.81 45.35 36.89 2.67 37.08-18.25 5.3-21.23 10.4-16.05 28-.4-11.26 7.09-15.45 17.45-20.22 3.11 11.3 1.82 19.46.23 32.09 8.69-9.19 9.45-31.36 23.06-25.46 3.15 30.56-63.78 133.85-9.84 69.34C541.1 936 509.41 843.9 545 877.8c-10.84-19.36-9.42-16.23 1.28-37.56 1.4-27.4.56-54.89.56-82.44C631.4 785.61 527.5 867 594.2 902.58c-44.85-64.92 59.49-117.86-38.75-170.64-36.27-40.67-24.74-32.23 19.56-14.21 31 10 31.3 9.29 33 37.21.79 12.74 5.3 23 22.87 26.38-26.08-35.94-9.47-47 24.92-31.52-15.42-20.17-40.33-34.55-64.76-46.41-8.11-6.79-34.23-8-27.73-19.49 202.65-2.66 48.47 124.27 50.1 202.79 17.23-47.39 44.66-72.75 33.61-4.07 34.6-30.68-29.76-108.87 39.85-55.91 6.84-4.32-24-25.19-16-33.76 24.72-20.75 47.83-3 46.61 23.29 28.74-41.18-46.49-49.82-35.28-77.67 68.94 43.6-12.48-18-7.77-49.21-7.85-7.35-46.73-20.3-20.49-27.56 60.51-12.55 70.9 58.48 89.21 85.74 1.33-22.17-8.48-27.44 22.9-25.17-64.58-40.8-5-28.18 36.37-41l-.32-5.92c-48.07 12.43-89 7.91-115.48-33.9 37.32-10.18 63.19 23 100 17 4.48-8-27.63-7.93-37.73-12.58-5.16-4 10.46-12.32 11.6-12.94 48.1-15.03 116.77-37.21 10.07-11.03z"/></svg>