<?xml version="1.0" encoding="utf-8"?><svg xmlns="http://www.w3.org/2000/svg" viewBox="0 0 1000 1000"><g fill="#0284c7"><circle cx="601" cy="860" r="8"/><circle cx="305" cy="860" r="8"/></g><path d="M313.57 504.45c-10.55-13.66-18.6 1.67-28.59 9 12.5 11.94 27.22 8.22 28.59-9zm356.05 36.78c-4.64-16.36-18-4.82-30.09-1.4 7.12 15.41 22.26 16.99 30.09 1.4zm26.96-124c8.2 13.69 26 3.38 24.59-11.64-4.58-16.03-25.41-2-24.59 11.64zM534.41 298.48c23.72-10.84 3.94 5.6 24 18.33 19.93-17.66-27.83-49.81-24-18.33zM294.08 408.49c29.15-22.31-40-40-10-3.38 1.33 2.11 7.75 4.27 10 3.38zm-16.31 42.32c18.75-11.5 5.26-22.23-9.27-28.23-10.82 3.85-.83 23.82 9.27 28.23zm24.67-68.26c16.95-10.59 2.63-22.14-.77-37.48-12.18 14.7-11.3 26.39.77 37.48zm395.85-18.76c-15 16.47-15.58 20.66-3.7 32.38 13.31-10.17 14.22-19.85 3.7-32.38zm-7.23 148.67c-17.5 21.82 38.23 29 14.32 4.17-3.38-4.13-8.21-9.94-14.32-4.17zm-344.88 10.66c-23-16.61-30.51 36.29-4.39 13.59 4.35-3.22 10.47-7.79 4.39-13.59zM713 457c10.9 18.89 19.79-7 21-16.63-16.37.05-24 6.63-21 16.63zM370.64 319.28c-18.75 8.19-22.17 17.82-9.76 28.84 12.93-8.12 11.12-18.2 9.76-28.84zm-26.55 35.05c7.8-9.69-3.54-22.37-21.54-21.91 6.45 8.58 6.73 24.84 21.54 21.91zm1.22-25.24c7.64-9.77 3.83-22-8.85-28.51-6.32 14.97-4 22.42 8.85 28.51zm270.57-49.33c-18.3 10-18.74 10.94-11.84 25.69 12.44-1.85 17.42-12.66 11.84-25.69zM642.41 358c6.23-14.32 2.29-22.47-12.78-28.39-.63 10.8-2.93 21.66 12.78 28.39zm-246.72-58.87c6.52-15.74 3.64-20.8-15.87-28.73 1.68 11.11 1.72 21.83 15.87 28.73zM436.13 284c12-5.39 1.4-19.59 2.55-31.37-12.74 10.19-15.55 26.75-2.55 31.37zm128.6-23.74c-9 9.82-10.9 19.51-.88 30.36 10.78-8.91 10.88-16.46.88-30.36zm87.89 100.05c11.13 14 24.22-4 19.42-15.42-11.82 2.11-20.44 5.46-19.42 15.42zm-209.17-48.02c8.59-5 16.88-26.71 4.52-28.81-3.15 9.87-17.56 20.27-4.52 28.81zm212.61 27.07c13.74-5.82 6.83-16.47 8.2-28-15.4 6.64-17.65 19.11-8.2 28zm-185.37 16.35c22.85 3.48-7-12.84 2.85-30.17-14.54 13.85-14.89 21.96-2.85 30.17zm-183 105.12c-12.89-8.35-15.15-8.13-29.27 2.59 11.43 8.58 16.36 8.21 29.27-2.59zM519.4 265.51c2.12-6.08 2.26-12.62 3.17-19-13.21-5.83-25.29 34.77-3.17 19zM402.87 328c2.56-15.19 2-15.82-16.64-19.32-.94 11.72 3.77 17.47 16.64 19.32zm237.77-6.79c8.55-9.47 7.31-14.47-7.44-25.57 1.5 8.65-7.68 19.36 7.44 25.57zm-24.81-3.71c-18.21-.76-21.44 2.63-17.09 16.7 13.32-.06 15.32-7.78 17.09-16.7zM298.8 459.77c8.09-8.68 6.27-17 1.31-26-11.43 10.23-11.88 16.86-1.31 26zm14.67-57.57c9.27-3.1 17.74-18.13 8.26-22.54-7.01 7.27-16.33 12.92-8.26 22.54zm101.94-99.11l6.34-25.28c-19.81 10.85-21.31 16.1-6.34 25.28zm61.25-15.49c13.92-6.19.07-17.52-12.78-17.47-1.19 9.58 3.36 15.03 12.78 17.47zm220.86 159.69c-1.81 8.64-6.45 17 3.9 23.34 8.58-5.94 5.41-21.58-3.9-23.34zM366.21 303.65c-.8-6 4.84-17.85-5-18.71-5.95 7.29-8.1 34.72 5 18.71zm253.99 85.19l11-18.49c-19.79 1.46-22.97 7.48-11 18.49zM368.47 359l13.06 22.59c10.12-14.4 6.64-19.73-13.06-22.59zm162.91-108.21l13.53 23.42c8.5-12.47 6.09-16.39-13.53-23.42zm84.47 117.82l3.46-25.81c-16.53 10.55-17.31 16.26-3.46 25.81zm66.45 50.05c10.23-12.87 6.46-20.4-10.3-24.53zM499 287.59c-2.8-6.67 4.15-24.33-6.87-23.27-4.43 7.42-8.79 24.84 6.87 23.27zm78.37-2.43l9.08 22.92c9.75-9.56 6.64-16.19-9.08-22.92zm-118.78-39.33c-1.32 6.1-15.51 16.92-6.21 20 11.35-3.12 13.07-6.48 6.21-20zm14.33-4.83l8.15 22.49c10.27-10.74 7.98-16.18-8.15-22.49zm150.92 290.27s-5.73-25.23-42.45-8.33C530 546.59 522 653.06 578.63 647.52c87-36 72.69.8 129.36-18.55 82-19.12 29.24-2.91-7.75 8.09-.88.45-12.88 6.54-8.92 9.44 7.76 3.39 32.45 3.38 29 9.18-28.32 4.32-48.17-19.86-76.86-12.44 20.36 30.52 51.82 33.81 88.77 24.75l.25 4.32c-31.8 9.33-77.61.12-28 29.9-24.12-1.67-16.58 2.18-17.61 18.37-14.07-19.9-22.06-71.73-68.58-62.58-20.17 5.3 9.72 14.75 15.76 20.12-3.63 22.76 59 67.73 6 35.91 0 0-34.62-41.16-72.18-42.06-13.86-.34-19.2 2.16-19.2 2.16-5 8.4 15.08 9.27 21.31 14.23 18.79 8.65 37.94 19.14 49.79 33.86-26.44-11.27-39.2-3.22-19.16 23-13.51-2.43-17-10-17.58-19.25-1.31-20.37-1.56-19.87-25.38-27.15-34-13.15-47.35-25.83-16.79 1.37 5.61 5 8.94 15.57 8.94 15.57s-20.39-5.69-30.69-15.82c14.71 14.46 16.19 46.68 16.19 52.12l-12.86-21.65c-5.13-14-8-22-19.56-34.17-18 12.65-.83 34.23-17.78 46.21 11.12-41.35-26.85-21.07-18.41 7.51.93 28.63-15.46-19.88-15.46-19.88-4.3-31.87 25.13-16.73 31.12-46-19.86 9.94-58.69 8.53-62.43 31.17-1.95 14.29-15.59 41.11-9.86 8.6 2.06-14.07-7-12.32-19.25-9.73-11.09-5.34 43.65-42.78 64.79-38.33-90-18.95-78.39 25.34-68.22 55.64 0 0-17.3-29.94-29-20-8.8 7.49-9.94 8-9.94 8s-1.93-4.74 1.4-14.65c3.45-10.25 34.15-29.87 13.41-34.32 7.44-2.87 16.4-5.55 24.28-9.62 5.7-3 3.89-6.61-2.08-9-35.42-9.5-60 23.12-66.63 50.76-11.27-27-38.36 7.21 5.74-32.2-18.66-3.93-45.31-2.13-54.31-12.1 31.69 3.66 60.51 9 81.55-15.07 19.56-28.27-60.1 18.26-81.5-1.33 40.93-2.42 52.49-6.33 9.59-24.31-78.29-14.61 12-13.44 37.28 5.84 39.71-4.55 69 3.63 105.35 18.87 66.89 12.05 55.76-135.3-26.41-131.07-20.31 1-40.93 12.26-40.93 12.26s.1-4 3.61-12.51c1.63-3.95-2.7-8.47-16.55-7.22-32.32 7.42-26.66-33.95-51.68-16.06-4.37.53-9.41-2.58-14.16-4.09-3.37-9.56 25.34-7.48 21.21-19.54 8.4 7.05 12.31-4.73 18.54-8.53 9.85 3.93-4.44 12.37-7 19.8 43.71 46.15 3.31-45.24-2-65.27 11.13 16.09 42.94 50.76 22.57 4.82l4.28-2c16 19.63 19.24-1 .54-9.49 31.51-.72-14.07-15.72-1-24.2 9.89 4.52 12.69 12.33 16.58 20.26 3 5 14.65 7.64 5.77 15.64 11.64 5.3 4.31 8.91-5.14 11.36-5.05 8.36-9.8 16.83-15.05 26 18.5-.38 17.45 3.54 3.64 12.27C346 496.38 406.7 505.35 372 459c-17.38 12.32-21.7-17.42-1.73-7.69V437c15.37.71-7.83 30.26 18.67 13.88 6.79 8.07-16.61 15.69.34 23.71 8.5-13.78 22.07-23.94 11.92-1.63-10.06 31.6 52.58 26.42 66.87 52 1.33-52.23-61.88-63.68-89-101.08-10.25-16.47-17.67-38.31-34.1-50.5-21.94-15.22-.84-4.32 7.59-16.11 7.63 5.57-5.24 21.82 16.35 10.8-13.41 16.54-7.13 22.06 9.89 36.65l21.23-48.7c15 11.89-11.2 14.88-4.93 21.2 36.14-2.61 17.23 14-.65 7.57-6.07 15-5.67 19.57 12.84 10.3 3.67 12.44-3.59 19.28-19.35 16.62 6.27 12.55 9.77 27.11 19.52 7.07 9.58 1.49.74 9.9.4 16.42 35.05 22.42 36.44 5.64 39.55-23-15.35-2.62-18.84-6.76-18-22.12 40.71 24.55-20.37-21.6-17.54-37.88-.43-4.22-7.44-8-11.34-11.87 17-15.36 12.78 14.65 27.8-1.72 3.32 21.72-20.11 17.71 19.57 41.74l-21.34-72.5c9 5.09 13.43 17 29.09 6.89 1.39 5.34-4.68 11.72-9.35 14.28-14.78 2 5.44 58.76 14.65 28-5 81.83-6 90.16 39.82 163.21 46.26-63.86-65.38-62.86-17.86-73.62 1.1-22.95-4.73-10.38-16.15-21.48 24.56-19.78 20.93 37.69 40.07 33.08-11.43-32.55-30.7-66-13.93-99.9 1.69-5.78-11.48-19.81-1.12-21.13 23.39 44.27 1.23 19.6 2.27 50.82 20.08-18.31 22-48.45 9.06-71.07-19.36 11-6.85-5-4.39-16-11 2.73-19.32 11.4-24.75 5.71 21.37-30.1 17.82 4 39.28-20-6.53 23.37-3.56 32.56 10.82 53.78 11.85-18.62 3.6-21.06-12.52-34.16 58.52-1.11 4.05 17.75 33.09 26-.13 1.4 0 2.64-.29 2.72-20.68 2.87-47.89 62.78-23.11 54.54-4.89 7.25-4.61 18.09-17.49 15.64 34.24 97.66 47.2 56.61 38.52-17.89-2.6-9 3.71-26.14-13.66-20.55 9.17-10.64-5.45-10.64 5.74-19.44 13.77 4.07 11.67 10.24 10.39 21.55 11.16 1.81 10.71-18 16.33-24.64 5.15-12-17.79-11.21-14.93-23.6 15.57 8.68 17.86-9.18 28.66-7.47 1.2 1.03-23.8 70.19-16.8 68.67 23.09-14.85 25.8-15.61 10-36.27 27.15 2.58 17 16.46 16.57-24 17.45 20.74 6.93 26.26.23 49-1.75 9.88-26.81 19.91-22.16 29.18 20.54-10.33 11.38 21.22-7.49 14.52L557.5 432c22.71-13.28 6.5 9.52-1.28 18.05 28.48.72 53.71-13.34 55.72-28.94-13.63-.51-20.88-6.2-21-20.15 34.94 15.88 16-12.63-8-11.15 5.48-16.05 35.66 8.28 9.52-24.33 14.94.52 21.54 33.33 29.64 46.12 17.68-9.62 19.54-14.27 12.15-32 15.77 9 10.22 1.3 11.14-8.74 43.84 6.75 1.51 7.86-.95 29.21-13.45 21.37-26.07 45.27-53.94 56.63-25.81 4.76-76.08 78.07-44.73 62.93 21.75-13.67 71.58-18.35 56.63-44.36 34.79 25-6.56-37.17 23.44-6.22 1.94-1.27-4.82-39 4.53-33.74-8.15 34.82 30.36 18.76-4.86 36.47-23.73 27.49 3 32.48 30.37 15.75 16.29-9.66-2.2-13.41-7.44-25.46 32.88 8.94 1.15-28.27-13.39-34.48h12c-12.92-13.68 8.54-20.56 17.44-38.45 9.88 8.44-23.46 24.84.27 24.46-5.86 5.93-18.31 16.94-7 21.31 4.42-6.36 4.55-17.44 13.84-8.4-27.74 32.51 9.14 22.73 20.9-2.9-2.22 18-44 97.23-6.8 69.67 40.41-46.92 73.38-.54 33.53-12.36-9.39-7.14-14.73-3.26-20.88 5.17 31.57 3 19.6 26.4-1.51 6.86-10.85 14.35-19.56 24.86-44.16 19.69 0 0-19.35-3.72-20.76 1.61-4.87 18.46-8.08 17.02-8.08 17.02z" fill="#075985"/><path d="M226.32 854.48c0 6.3.11 11.22.55 16.62l-.11.06a118.86 118.86 0 0 0-6.61-13.16l-11.79-20.46h-5.19V878h4.48v-17.28c0-6.72-.11-11.58-.38-16.68l.16-.06a132.43 132.43 0 0 0 6.88 13.5L226 878h4.81v-40.44h-4.48zm22.68.6c-5.07-2.16-7.31-4-7.31-7.8 0-2.76 1.91-6.06 6.93-6.06a13.65 13.65 0 0 1 7 1.92l1.31-4.26a15.52 15.52 0 0 0-8.13-2c-7.16 0-11.91 4.68-11.91 11 0 5.7 3.72 9.12 9.72 11.46 5 2.1 6.94 4.26 6.94 8 0 4.08-2.84 6.9-7.7 6.9a15.73 15.73 0 0 1-8.52-2.64l-1.2 4.38c2 1.44 5.84 2.58 9.39 2.58 8.68 0 12.88-5.4 12.88-11.64.02-5.92-3.14-9.2-9.4-11.84zm30.45 1.26v-.12a9.53 9.53 0 0 0 6.22-8.88 8.81 8.81 0 0 0-3.06-7.14c-2.29-2-5.35-2.94-10.1-2.94a42 42 0 0 0-8.68.84v39.78a50.62 50.62 0 0 0 7.37.48c6 0 10.16-1.2 12.72-3.78a11.42 11.42 0 0 0 3.11-8.1 10.18 10.18 0 0 0-7.58-10.14zm-10.87-14.7a18.66 18.66 0 0 1 4.21-.36c4.8 0 8.08 1.86 8.08 6.6 0 3.9-2.95 6.78-8 6.78h-4.31zm4 32.64a23.14 23.14 0 0 1-4-.24v-15.42h3.93c5.19 0 9.5 2.28 9.5 7.8-.01 5.88-4.53 7.86-9.44 7.86zm60.32-37.02a50.23 50.23 0 0 0-9.12.78v40h4.75V861.8a14.9 14.9 0 0 0 3.82.36c4.64 0 8.74-1.5 11.25-4.44a12.64 12.64 0 0 0 2.84-8.64 11.4 11.4 0 0 0-3.22-8.46c-2.22-2.16-5.63-3.36-10.32-3.36zm-.44 20.7a14.57 14.57 0 0 1-3.93-.42v-15.72a18.2 18.2 0 0 1 4.48-.42c5.24 0 8.68 2.58 8.68 7.92 0 5.58-3.5 8.68-9.23 8.68zm28.94-9.66c-7.32 0-13.1 5.7-13.1 15.42 0 9.18 5.51 14.94 12.66 14.94 6.39 0 13.16-4.68 13.16-15.42 0-8.88-5.12-14.94-12.72-14.94zm-.22 26.4c-4.69 0-8-4.8-8-11.16 0-5.52 2.45-11.28 8.13-11.28s7.92 6.24 7.92 11.16c-.02 6.58-3.46 11.28-8.05 11.28zm22.28-20.04h-.22l-.16-5.7h-4.21l.22 9.06v20h4.75v-15.5a16.17 16.17 0 0 1 .22-2.46c.65-4 3.06-6.78 6.44-6.78a6.58 6.58 0 0 1 1.64.18v-5a4.79 4.79 0 0 0-1.37-.18c-3.22.02-6.11 2.48-7.31 6.38zM403 840.62l-4.7 1.38v7h-4.09v4h4.09v15.84c0 3.42.5 6 1.86 7.56a6.37 6.37 0 0 0 5.19 2.22 10.84 10.84 0 0 0 4.26-.72l-.22-4a9.8 9.8 0 0 1-2.79.36c-2.67 0-3.6-2-3.6-5.64V853h6.88v-4H403zm36.69-3.72c-9.82 0-17.09 8.4-17.09 21.24 0 12.24 6.83 20.52 16.55 20.52 9.39 0 17.09-7.38 17.09-21.3 0-12-6.5-20.46-16.55-20.46zm-.27 37.5c-7.48 0-11.74-7.74-11.74-16.38 0-8.88 3.93-16.86 11.79-16.86s11.74 8.4 11.74 16.44c0 9.18-4.21 16.8-11.79 16.8zm26.1-19.74h-.22l-.16-5.7h-4.21l.22 9.06v20h4.75v-15.5a16.17 16.17 0 0 1 .22-2.46c.66-4 3.06-6.78 6.44-6.78a6.58 6.58 0 0 1 1.64.18v-5a4.76 4.76 0 0 0-1.36-.18c-3.23.02-6.12 2.48-7.32 6.38zm30.68 5.52c0-5.82-2-11.88-10-11.88a15.29 15.29 0 0 0-8.68 2.58l1.09 3.48a12.31 12.31 0 0 1 6.88-2.16c5.4 0 6 4.32 6 6.72v.6c-10.21-.06-15.88 3.78-15.88 10.8 0 4.2 2.73 8.34 8.08 8.34a9.6 9.6 0 0 0 8.08-4.32h.16l.38 3.66h4.37a44.54 44.54 0 0 1-.44-7zm-4.64 8a6.14 6.14 0 0 1-.27 1.68 6.65 6.65 0 0 1-6.39 4.86c-2.45 0-4.53-1.62-4.53-5 0-5.64 5.95-6.66 11.19-6.54zM516 848.3a9.62 9.62 0 0 0-8.73 5.46h-.11l-.27-4.8h-4.26l.22 7.86V878h4.8v-17.46a8.23 8.23 0 0 1 .33-2.46c.82-2.94 3.27-5.4 6.44-5.4 4.53 0 6.12 3.9 6.12 8.58V878h4.8v-17.34c.02-9.96-5.66-12.36-9.34-12.36zm34.42 5.04h-.11a8.7 8.7 0 0 0-8.24-5c-6.06 0-11.9 5.58-11.9 15.42 0 8 4.69 14.16 11.24 14.16a9.26 9.26 0 0 0 8.41-4.86h.11v3.24c0 7.32-3.6 10.14-8.52 10.14a13.92 13.92 0 0 1-7.75-2.28l-1.2 4c2.13 1.56 5.62 2.4 8.79 2.4 3.33 0 7-.84 9.61-3.48s3.77-6.6 3.77-13.26v-16.88c0-3.54.1-5.88.21-8h-4.2zm-.54 12.3a9.79 9.79 0 0 1-.39 2.82 7.12 7.12 0 0 1-6.66 5.4c-5.18 0-7.8-4.74-7.8-10.44 0-6.72 3.27-11 7.86-11 3.49 0 5.84 2.52 6.71 5.58a8.16 8.16 0 0 1 .28 2.4zM572 848.3c-7.7 0-12.4 6.9-12.4 15.66s4.86 14.64 13 14.64a19.76 19.76 0 0 0 8.79-1.8l-.82-3.78a16 16 0 0 1-7.32 1.5c-4.8 0-9-2.94-9.06-10.08h18.56a20.34 20.34 0 0 0 .17-2.46c-.01-5.34-2.31-13.68-10.92-13.68zm-7.75 12.36c.38-3.66 2.51-8.58 7.37-8.58 5.4 0 6.71 5.22 6.66 8.58zm65.23-23.4a62 62 0 0 0-10.1.84v39.78a69.81 69.81 0 0 0 8.63.48c7.15 0 12.83-2 16.27-5.82s5.29-9.12 5.29-15.72-1.91-11.22-5.19-14.52-8.08-5.04-14.9-5.04zm-.55 36.9a27.31 27.31 0 0 1-4.8-.3v-31.92a24.66 24.66 0 0 1 5.57-.54c10 0 15 6.06 14.9 15.6 0 10.92-5.51 17.16-15.67 17.16zm44.12-13.98c0-5.82-2-11.88-10-11.88a15.32 15.32 0 0 0-8.68 2.58l1.1 3.48a12.28 12.28 0 0 1 6.87-2.16c5.41 0 6 4.32 6 6.72v.6c-10.21-.06-15.89 3.78-15.89 10.8 0 4.2 2.73 8.34 8.08 8.34a9.57 9.57 0 0 0 8.08-4.32h.17l.38 3.66h4.37a44.54 44.54 0 0 1-.44-7zm-4.64 8a6.14 6.14 0 0 1-.27 1.68 6.66 6.66 0 0 1-6.39 4.86c-2.46 0-4.53-1.62-4.53-5 0-5.64 5.95-6.66 11.19-6.54zM690.3 866l-1.69 6.06h-.11l-1.69-5.94L681 849h-5.24l9.77 26.76a5 5 0 0 1 .33 1.38 4 4 0 0 1-.38 1.26 15.9 15.9 0 0 1-4 5.88 12.36 12.36 0 0 1-4.21 2.58l1.21 4.44a12.63 12.63 0 0 0 5.89-3.42c3.28-3.12 5.63-8.22 9.07-18.18l7.2-20.7h-5.08zm19.39-25.38L705 842v7h-4.1v4h4.1v15.84c0 3.42.49 6 1.86 7.56a6.35 6.35 0 0 0 5.14 2.2 10.81 10.81 0 0 0 4.26-.72l-.22-4a9.72 9.72 0 0 1-2.78.36c-2.67 0-3.6-2-3.6-5.64V853h6.88v-4h-6.88zm22.05 7.68c-7.31 0-13.1 5.7-13.1 15.42 0 9.18 5.52 14.94 12.67 14.94 6.39 0 13.15-4.68 13.15-15.42 0-8.88-5.13-14.94-12.72-14.94zm-.21 26.4c-4.7 0-8-4.8-8-11.16 0-5.52 2.46-11.28 8.13-11.28s7.92 6.24 7.92 11.16c-.03 6.58-3.47 11.28-8.05 11.28zm31.06-26.4a9.62 9.62 0 0 0-8.73 5.46h-.11l-.27-4.8h-4.26l.22 7.86V878h4.8v-17.46a8.23 8.23 0 0 1 .33-2.46c.82-2.94 3.27-5.4 6.44-5.4 4.53 0 6.12 3.9 6.12 8.58V878h4.8v-17.34c0-9.96-5.68-12.36-9.34-12.36zm34.62 11.88c0-5.82-2-11.88-10.05-11.88a15.32 15.32 0 0 0-8.68 2.58l1.09 3.48a12.34 12.34 0 0 1 6.88-2.16c5.41 0 6 4.32 6 6.72v.6c-10.21-.06-15.89 3.78-15.89 10.8 0 4.2 2.73 8.34 8.08 8.34a9.57 9.57 0 0 0 8.08-4.32h.17l.38 3.66h4.37a44.54 44.54 0 0 1-.44-7zm-4.64 8a5.8 5.8 0 0 1-.28 1.68 6.64 6.64 0 0 1-6.38 4.86c-2.46 0-4.53-1.62-4.53-5 0-5.64 6-6.66 11.19-6.54z" fill="#0284c7"/><path d="M222.08 158.37l.65-9.66a33.51 33.51 0 0 1-10.31 1.81q-8.11 0-12.6-5.79a21.74 21.74 0 0 1-4.49-13.73 22.33 22.33 0 0 1 3.79-13.13q3.78-5.39 11.54-5.39a25.89 25.89 0 0 1 8.63 1.59l1.34-9.7a32.53 32.53 0 0 0-8.83-1.17q-12.68 0-20 8.73a31.1 31.1 0 0 0-7.28 20.54 28.55 28.55 0 0 0 6.86 19.33q6.86 8 20 8a42 42 0 0 0 10.7-1.43zm36.82-35.96a17.72 17.72 0 0 0-13-5.48 19.07 19.07 0 0 0-14 6q-6 6-6 16.63 0 9.87 5.46 15.31a17.93 17.93 0 0 0 13.11 5.43 19 19 0 0 0 14-6q5.91-6 5.92-16.54-.04-9.87-5.49-15.35zm-7.07 26.3a7.62 7.62 0 0 1-6.59 3.87q-4.17 0-6.76-4.14a18.87 18.87 0 0 1-2.6-10.22 17.23 17.23 0 0 1 2.54-9.66 7.61 7.61 0 0 1 6.58-3.86c2.78 0 5 1.37 6.77 4.13a18.91 18.91 0 0 1 2.6 10.23 17.14 17.14 0 0 1-2.54 9.65zm51.34-30.02l-10.31.38q.45 7.89.46 30a12.81 12.81 0 0 1-7.72 2.35 5.36 5.36 0 0 1-5.49-3.57q-1.39-3.57-1.39-13.85 0-7.23.61-15.29l-10.66.42q.72 10.2.72 14.87l-.05 4.11-.06 3.65q0 10.89 3.19 14.51 3.19 3.62 9.5 3.63a16.89 16.89 0 0 0 11.69-4.53h.61a14.54 14.54 0 0 0 .61 3.61l8.94-.33a191 191 0 0 1-1-19.36q-.03-12.66.35-20.6zm25.27 7.18a6.36 6.36 0 0 1 5.4 2.35q1.79 2.35 1.78 8.95 0 10.88-.84 21.5h10.16q-.19-13.9-.19-19.57l.1-4.18.09-3.25q0-8.19-3.53-11.24-3.53-3.05-9.42-3a17 17 0 0 0-12 5h-.61l-.65-4.45-9.78 1.18a91.76 91.76 0 0 1 1.83 18.84q0 7.52-.69 20.66h10.28q0-13.14-.19-29.52a12.63 12.63 0 0 1 8.26-3.27zm37.75 8.13a23.33 23.33 0 0 1-5.31-2.71 3.49 3.49 0 0 1-1.3-2.84q0-3.43 6.11-3.44a23.51 23.51 0 0 1 9.33 1.85l1.3-8.32a34.78 34.78 0 0 0-10.63-1.3q-7.21 0-11 3.4a11.52 11.52 0 0 0-3.78 9 10.55 10.55 0 0 0 3.51 8 30.17 30.17 0 0 0 8.18 4.79q6.42 2.78 6.42 5.83a2.89 2.89 0 0 1-1.78 2.82q-1.77.84-6.36.84a25.75 25.75 0 0 1-9.52-1.89l-1.3 8.27a35.84 35.84 0 0 0 10.82 1.47q17 0 17-12.6a11.25 11.25 0 0 0-3.6-8.61 26.66 26.66 0 0 0-8.09-4.56zm34.16-16.95q-8.87 0-13.85 6.57a25 25 0 0 0-5 15.52 21.7 21.7 0 0 0 5.25 14.66q5.25 6.09 15.11 6.08a35.69 35.69 0 0 0 13.14-2.09l.77-8.15a43.5 43.5 0 0 1-12.19 1.89 11.3 11.3 0 0 1-8.33-3.15 12.78 12.78 0 0 1-3.71-7.9l24.56-.48.23-5.58q0-7.73-3.94-12.56-3.94-4.83-12.04-4.81zm-8.94 17.35q1.33-10 8.49-10 7.49 0 7.49 9.66zm31.22 24.27h10.44q-.58-14.32-.58-31.2 0-16.64.58-28.52l-11.07.68a276.56 276.56 0 0 1 1.19 27.84q.02 16.8-.56 31.2zm18.2 0h10.27q-.53-9.16-.53-19.95 0-12.65.5-20.79l-11 1.22a129 129 0 0 1 1.3 19.57q-.01 11.28-.54 19.95zm5.31-45.44a6.09 6.09 0 0 0 4.95-2.14 7.61 7.61 0 0 0 1.77-5 6.8 6.8 0 0 0-1.47-4.39 5.07 5.07 0 0 0-4.18-1.82 6.18 6.18 0 0 0-5 2.1 7.45 7.45 0 0 0-1.78 5 6.83 6.83 0 0 0 1.51 4.45 5.09 5.09 0 0 0 4.2 1.8zm22.01 45.44q0-13.14-.19-29.52a12.62 12.62 0 0 1 8.25-3.28 6.38 6.38 0 0 1 5.41 2.35c1.18 1.57 1.78 4.55 1.78 8.95q0 10.88-.84 21.5h10.16q-.2-13.9-.19-19.57l.09-4.18.1-3.25q0-8.19-3.53-11.24-3.53-3.05-9.42-3a17 17 0 0 0-12 5h-.61l-.65-4.45-9.78 1.18a92.45 92.45 0 0 1 1.83 18.84q0 7.52-.69 20.66zm68.17 4.15q0-11.46-15.32-11.46-8.87 0-11.29-1a3.62 3.62 0 0 1-2.43-3.59 3 3 0 0 1 2-2.64 25.52 25.52 0 0 0 6.39.67q8 0 12-4.24a14.38 14.38 0 0 0 4-10.25 11.85 11.85 0 0 0-2.26-7v-.55c1-1.26 3.48-1.89 7.45-1.89l.84-7.81a9.39 9.39 0 0 0-4.35-1q-6.31 0-7.42 7.94h-.53a17.48 17.48 0 0 0-9.86-2.52q-8.91 0-13.16 4.16a13.84 13.84 0 0 0-4.26 10.33 11.3 11.3 0 0 0 6.19 10.62v.59q-4.39 3.1-4.4 7.73-.01 4.63 3.21 6.8v.63a8 8 0 0 0-4.64 3.25 10.47 10.47 0 0 0-2 6.49q0 12.35 17.89 12.35a25.29 25.29 0 0 0 15.51-4.75 15.11 15.11 0 0 0 6.44-12.86zm-26.27-37.26a7.32 7.32 0 0 1 5-1.91 7.18 7.18 0 0 1 7.3 7.72 6.89 6.89 0 0 1-2.17 5.52 7.29 7.29 0 0 1-4.94 1.87 7.59 7.59 0 0 1-5.16-1.93 8.35 8.35 0 0 1-.06-11.27zm13.66 46.38q-3.16 2.26-8.63 2.26-9.8 0-9.79-8.06a7.25 7.25 0 0 1 3.37-6.51q4.35.42 8.63.42 5.28 0 7.43 1.39a4.93 4.93 0 0 1 2.16 4.49 7 7 0 0 1-3.17 6.01zm14.71-30.49l16.36-.63.46-7.56-16.47.63-.35 7.56zm15.25-28.39q9.41-.66 14.79-.67.15 8.1.16 17.68 0 15.24-.5 28.6h10.7q-.42-13.48-.42-28.6 0-9.73.07-17.68 6.76 0 14.41.63l.27-9H554zm66.5 15.14q1.71 2.33 1.71 9.81 0 10-.84 20.66h10.17q-.19-13.9-.19-20.92l.09-3.25.1-3.25q0-7.73-3.5-10.8-3.5-3.07-9.65-3.06a15.83 15.83 0 0 0-11.54 5.08H606q0-10 .57-23.52l-10.81.68a270 270 0 0 1 1.24 27.84q0 18.18-.42 31.2h10.16q-.37-11.88-.38-29.73a13.35 13.35 0 0 1 8.18-3.07q3.9 0 5.63 2.33zm36.72 31.68a35.73 35.73 0 0 0 13.11-2.09l.76-8.15a43.44 43.44 0 0 1-12.19 1.89 11.31 11.31 0 0 1-8.33-3.15 12.77 12.77 0 0 1-3.7-7.9l24.61-.46.22-5.58q0-7.73-3.93-12.56-3.93-4.83-12-4.83-8.86 0-13.85 6.57a24.94 24.94 0 0 0-5 15.52 21.66 21.66 0 0 0 5.26 14.66q5.15 6.09 15.04 6.08zm-2-35.48q7.5 0 7.49 9.66l-16 .34q1.37-10 8.52-10zm21.68 34.27h10.17q-.24-9-.23-25.79 1.79-5.53 7.41-5.54a14 14 0 0 1 5.73 1.26l2.22-9.83a16.9 16.9 0 0 0-6.19-1.38q-5.85 0-9.37 5.92h-.61c0-.53-.21-2.34-.65-5.42l-9.74 1.18a90.69 90.69 0 0 1 1.91 18.93q0 8-.65 20.67zm32.12-20.08a13 13 0 0 0-4.91 10.46 10.07 10.07 0 0 0 3.15 7.75 11.25 11.25 0 0 0 7.93 2.92q7.15 0 11.35-3.95h.5a9.75 9.75 0 0 0 .61 3.19l9-.33a67.74 67.74 0 0 1-1.23-14.24q0-1.56.14-6.22.14-4.66.13-6.42 0-8-3.76-11.17-3.76-3.17-10.68-3.19-9.48 0-14.68 2l-.84 7.73a38.43 38.43 0 0 1 11.28-1.68q5.31 0 7.29 1.45c1.33 1 2 3 2 6l-.07 1.43q-12.3.2-17.21 4.27zm17.44 11.3a11.47 11.47 0 0 1-7.52 2.48c-3.82 0-5.74-1.67-5.74-5q0-7.26 13-7.26.04 4.11.26 9.78zm48.57-26.73a13.67 13.67 0 0 0-11.61-5.81q-7 0-11.12 4.15h-.61l-.58-3.61-9.78 1.18q2 10.67 2 31 0 15.75-.69 27.8h10.39q-.26-10.55-.26-20.83h.45c1.53 1.9 4.34 2.85 8.41 2.85a14.92 14.92 0 0 0 13-6.88A27.6 27.6 0 0 0 779 137a22.67 22.67 0 0 0-4.3-13.84zm-8.33 25a8.15 8.15 0 0 1-7.52 4.13 9.2 9.2 0 0 1-6.23-2.06q0-9.83-.58-21.62c1.63-2.27 4.21-3.4 7.72-3.4a7.47 7.47 0 0 1 6.65 3.82 16.69 16.69 0 0 1 2.41 9.11 19.38 19.38 0 0 1-2.45 9.97zm37.51-13.91q-3.15 11.94-3.15 14.38h-.54q0-2.85-3.47-15.62-3.47-12.77-3.48-14.24h-11.81q0 .81 6.88 17.66 6.88 16.85 6.88 21.86a10.49 10.49 0 0 1-3.06 7.91 10.74 10.74 0 0 1-7.8 3l.77 8.1q8.1 0 12.15-3.86 4.05-3.86 6.69-14.49 1.45-6.09 7.68-22.84 5.46-14.58 5.46-17.31H807q0 3.51-3.12 15.45z" fill="#0c4a6e"/></svg>