<?xml version="1.0" encoding="utf-8"?><svg xmlns="http://www.w3.org/2000/svg" viewBox="0 0 1000 1000"><g fill="#0284c7"><circle cx="627.26" cy="955.65" r="10.1"/><circle cx="253.67" cy="955.65" r="10.1"/></g><path d="M264.48 506.9c-13.31-17.25-23.48 2.1-36.08 11.37 15.78 15.06 34.36 10.36 36.08-11.37zm449.38 46.42c-5.85-20.64-22.69-6.08-38-1.77 9.01 19.45 28.14 21.45 38 1.77zm34.03-156.51c10.36 17.29 32.8 4.28 31-14.69-5.73-20.22-32.03-2.51-31 14.69zM543.21 246.93c29.95-13.68 5 7.08 30.23 23.14 25.22-22.29-35.06-62.87-30.23-23.14zM239.89 385.78c36.79-28.15-50.47-50.45-12.57-4.27 1.62 2.67 9.73 5.4 12.57 4.27zm-20.59 53.41c23.66-14.51 6.63-28.05-11.69-35.62-13.61 4.86-1.06 30.06 11.69 35.62zM250.44 353c21.39-13.36 3.32-27.94-1-47.29-15.34 18.58-14.24 33.34 1 47.29zm499.62-23.63c-18.95 20.79-19.67 26.07-4.68 40.87 16.8-12.83 17.95-25.06 4.68-40.87zM740.93 517c-22.08 27.54 48.26 36.56 18.07 5.26-4.28-5.2-10.36-12.53-18.07-5.26zm-435.29 13.46c-29-21-38.51 45.81-5.53 17.15 5.48-4.06 13.21-9.83 5.53-17.15zM768.6 447c13.75 23.84 25-8.87 26.5-21-20.64.09-30.21 8.44-26.5 21zM336.52 273.18c-23.67 10.34-28 22.5-12.32 36.41 16.32-10.23 13.98-22.97 12.32-36.41zM303 317.43c9.85-12.23-4.46-28.24-27.18-27.65 8.1 10.83 8.49 31.34 27.18 27.65zm1.54-31.86c9.64-12.33 4.84-27.81-11.17-36-7.97 18.92-5.04 28.36 11.17 36zM646 223.31c-23 12.59-23.61 13.81-14.9 32.42 15.7-2.33 21.99-15.97 14.9-32.42zm33.52 98.8c7.86-18.07 2.9-28.36-16.13-35.84-.78 13.58-3.69 27.3 16.13 35.84zm-311.38-74.36c8.22-19.86 4.58-26.24-20-36.26 2.08 14.03 2.13 27.51 20 36.26zm51.03-19.13c15.19-6.8 1.77-24.72 3.22-39.59-16.08 12.9-19.62 33.8-3.22 39.59zm162.31-29.92c-11.39 12.39-13.75 24.62-1.11 38.32 13.63-11.25 13.74-20.78 1.11-38.32zM692.41 325c14 17.65 30.57-5.1 24.51-19.46-14.92 2.64-25.8 6.87-24.51 19.46zm-264-60.64c10.84-6.28 21.3-33.7 5.71-36.36-3.98 12.47-22.12 25.59-5.71 36.36zm268.35 34.17c17.34-7.35 8.61-20.79 10.34-35.29-19.43 8.26-22.27 24.07-10.34 35.29zm-233.97 20.64c28.84 4.39-8.78-16.21 3.6-38.08-18.39 17.49-18.8 27.72-3.6 38.08zM231.82 451.84c-16.27-10.54-19.12-10.26-36.94 3.27 14.42 10.77 20.65 10.36 36.94-3.27zm292.45-246.52c2.68-7.67 2.85-15.92 4-23.94-16.67-7.38-31.92 43.85-4 23.94zM377.2 284.23c3.23-19.19 2.51-20-21-24.39-1.2 14.77 4.74 22.02 21 24.39zm300.1-8.61c10.78-11.95 9.22-18.26-9.39-32.27 1.88 10.91-9.71 24.4 9.39 32.27zm-31.3-4.68c-23-1-27.06 3.32-21.58 21.07 16.8-.07 19.33-9.81 21.58-21.07zM245.84 450.51c10.22-11 7.92-21.51 1.66-32.89-14.43 12.99-15 21.38-1.66 32.89zm18.52-72.66c11.69-3.92 22.39-22.88 10.43-28.45-8.86 9.17-20.62 16.3-10.43 28.45zM393 252.75l8-31.91c-25 13.7-26.87 20.32-8 31.91zm77.32-19.55c17.57-7.81.09-22.11-16.13-22-1.5 12.05 4.24 18.92 16.13 22zm278.76 201.56c-2.28 10.9-8.13 21.4 4.92 29.45 10.82-7.49 6.83-27.21-4.92-29.45zm-418.15-181.3c-1-7.55 6.1-22.53-6.34-23.62-7.49 9.21-10.2 43.83 6.34 23.62zM651.49 361l13.88-23.33c-24.96 1.82-28.99 9.41-13.88 23.33zm-317.71-37.7l16.48 28.51c12.74-18.15 8.38-24.88-16.48-28.51zm205.61-136.56l17.08 29.56c10.72-15.74 7.66-20.68-17.08-29.56zM646 335.45l4.37-32.57c-20.86 13.31-21.91 20.51-4.37 32.57zm83.87 63.18c12.92-16.26 8.16-25.76-13-31l13 31zM498.51 233.2c-3.53-8.43 5.23-30.72-8.67-29.38-5.58 9.36-11.08 31.35 8.67 29.38zm98.93-3.07l11.45 28.92c12.32-12.05 8.39-20.43-11.45-28.92zm-149.93-49.65c-1.65 7.71-19.57 21.36-7.82 25.2 14.31-3.89 16.48-8.13 7.82-25.2zm18.1-6.09l10.28 28.39c12.97-13.56 10.11-20.43-10.28-28.39zm190.47 366.36s-7.22-31.84-53.57-10.51c-64.84 29.84-75 164.23-3.49 157.23 109.75-45.39 91.75 1 163.28-23.4 103.53-24.14 36.9-3.68-9.79 10.2-1.1.57-16.26 8.25-11.26 11.92 9.8 4.28 41 4.26 36.61 11.58-35.7 5.48-60.8-25.07-97-15.69 25.7 38.51 65.41 42.67 112 31.23l.32 5.45c-40.14 11.78-98 .15-35.3 37.74-30.44-2.1-20.92 2.76-22.21 23.18-17.77-25.11-27.85-90.53-86.56-79-25.47 6.68 12.26 18.61 19.88 25.38-4.57 28.73 74.43 85.48 7.54 45.33 0 0-43.7-51.95-91.1-53.09-17.49-.42-24.24 2.73-24.24 2.73-6.31 10.61 19 11.7 26.91 18 23.7 10.93 47.87 24.17 62.83 42.75-33.37-14.23-49.48-4.07-24.17 29-17.06-3.06-21.43-12.56-22.19-24.29-1.66-25.71-2-25.08-32-34.27-43-16.6-59.77-32.6-21.19 1.73 7.08 6.31 11.29 19.65 11.29 19.65s-25.74-7.18-38.74-20c18.57 18.25 20.44 58.91 20.44 65.77l-16.24-27.32c-6.47-17.67-10-27.8-24.68-43.13-22.7 16-1.05 43.21-22.45 58.33 14-52.19-33.89-26.59-23.24 9.47 1.18 36.14-19.51-25.09-19.51-25.09-5.42-40.22 31.72-21.11 39.29-58.08-25.08 12.55-74.09 10.76-78.81 39.34-2.46 18-19.67 51.88-12.44 10.86 2.61-17.76-8.83-15.55-24.3-12.29-14-6.73 55.1-54 81.78-48.37-113.56-23.92-98.94 32-86.1 70.22 0 0-21.84-37.79-36.61-25.21-11.1 9.45-12.54 10.08-12.54 10.08s-2.44-6 1.77-18.49c4.35-12.94 43.1-37.7 16.92-43.32 9.38-3.62 20.7-7 30.64-12.13 7.2-3.72 4.91-8.35-2.62-11.34-44.71-12-75.73 29.18-84.09 64.07-14.23-34-48.43 9.1 7.24-40.64-23.55-5-57.19-2.7-68.54-15.28 40 4.62 76.36 11.3 102.91-19 24.7-35.69-75.84 23-102.86-1.68 51.66-3.06 66.26-8 12.1-30.69-98.8-18.43 15.12-17 47.06 7.37 50.12-5.74 87.1 4.59 133 23.82 84.43 15.21 70.37-170.76-33.34-165.43-25.71 1.35-51.71 15.5-51.71 15.5s.13-5.07 4.56-15.79c2.06-5-3.41-10.68-20.89-9.1-40.8 9.36-33.65-42.86-65.22-20.28-5.52.67-11.88-3.26-17.87-5.16-4.26-12.07 32-9.44 26.77-24.66 10.59 8.89 15.53-6 23.39-10.77 12.43 5-5.6 15.61-8.88 25 55.17 58.25 4.17-57.09-2.52-82.38 14 20.31 54.18 64.07 28.48 6.09l5.4-2.59c20.22 24.77 24.29-1.2.68-12 39.77-.91-17.75-19.85-1.26-30.54 12.48 5.7 16 15.56 20.93 25.56 3.78 6.34 18.49 9.64 7.28 19.74 14.69 6.69 5.45 11.26-6.49 14.35C305 419 299 429.65 292.38 441.23c23.34-.48 22 4.47 4.59 15.49 8.43 40 85.06 51.31 41.2-7.14-21.94 15.56-27.39-22-2.18-9.7v-18.06c19.39.9-9.89 38.19 23.56 17.52 8.56 10.18-21 19.81.43 29.93 10.72-17.41 27.85-30.22 15-2.07-12.71 39.89 66.36 33.35 84.4 65.57 1.67-65.92-78.11-80.37-112.3-127.57-12.94-20.79-22.3-48.35-43-63.74-27.69-19.21-1.06-5.45 9.58-20.33 9.63 7-6.61 27.54 20.64 13.62-16.93 20.89-9 27.85 12.48 46.26l26.79-61.47c18.93 15-14.14 18.79-6.22 26.76 45.61-3.29 21.75 17.62-.82 9.56-7.66 18.87-7.16 24.71 16.21 13 4.63 15.71-4.53 24.34-24.43 21 7.92 15.84 12.34 34.21 24.65 8.92 12.08 1.88.93 12.5.49 20.72 44.25 28.3 46 7.12 49.93-29-19.38-3.31-23.78-8.53-22.68-27.92 51.39 31-25.71-27.26-22.13-47.81-.55-5.33-9.4-10.1-14.31-15 21.41-19.38 16.13 18.49 35.09-2.18 4.19 27.41-25.35 22.41 24.7 52.7l-26.93-91.52c11.36 6.43 16.95 21.44 36.72 8.7 1.75 6.74-5.91 14.79-11.81 18-18.65 2.51 6.87 74.16 18.49 35.27-6.36 103.29-7.6 113.79 50.26 206 58.38-80.6-82.51-79.33-22.54-92.92 1.39-29-6-13.09-20.39-27.1 31-25 26.43 47.56 50.58 41.74-14.43-41.06-38.75-83.23-17.58-126.06 2.14-7.3-14.5-25-1.41-26.67 29.51 55.87 1.55 24.74 2.85 64.15 25.36-23.12 27.82-61.15 11.45-89.71-24.45 13.9-8.65-6.36-5.55-20.24-13.86 3.46-24.38 14.4-31.23 7.22 27-38 22.48 5 49.57-25.23-8.24 29.49-4.49 41.1 13.66 67.88 15-23.5 4.54-26.59-15.8-43.12 73.85-1.4 5.11 22.41 41.76 32.83-.16 1.77 0 3.33-.36 3.43-26.1 3.62-60.45 79.24-29.18 68.84-6.16 9.15-5.82 22.83-22.07 19.74 43.22 123.26 59.58 71.44 48.62-22.58-3.28-11.31 4.68-33-17.24-25.94 11.57-13.43-6.87-13.43 7.24-24.53 17.38 5.13 14.74 12.92 13.11 27.2 14.1 2.28 13.52-22.68 20.61-31.1 6.51-15.16-22.45-14.16-18.84-29.79 19.66 11 22.55-11.59 36.18-9.43 1.52 1.36-30.1 88.66-21.27 86.73 29.15-18.73 32.57-19.7 12.59-45.77 34.28 3.26 21.46 20.77 20.92-30.27 22 26.18 8.75 33.14.29 61.83-2.21 12.47-33.83 25.13-28 36.83 25.92-13 14.37 26.78-9.46 18.33l3 22.44c28.65-16.76 8.2 12-1.62 22.78 35.94.91 67.79-16.84 70.33-36.52-17.21-.64-26.36-7.83-26.55-25.43 44.1 20 20.25-15.95-10.14-14.08 6.91-20.26 45 10.46 12-30.7 19 .65 27.35 42 37.57 58.18 22.32-12.13 24.67-18 15.34-40.32 19.9 11.41 12.9 1.65 14.06-11 55.32 8.52 1.9 9.91-1.2 36.86-17 27-32.9 57.14-68.08 71.48-32.57 6-96 98.53-56.46 79.42C585 508.87 647.89 503 629 470.13c43.91 31.55-8.28-46.92 29.59-7.85 2.44-1.6-6.09-49.21 5.71-42.58-10.28 43.95 38.32 23.67-6.14 46-29.94 34.69 3.73 41 38.34 19.87 20.56-12.18-2.78-16.92-9.39-32.12 41.5 11.27 1.45-35.69-16.9-43.53h15.08c-16.31-17.28 10.77-26 22-48.54 12.46 10.65-29.61 31.35.33 30.88-7.39 7.48-23.1 21.37-8.8 26.89 5.59-8 5.75-22 17.48-10.6-35 41 11.52 28.69 26.37-3.66-2.8 22.77-55.49 122.72-8.58 87.93 51-59.22 92.61-.68 42.32-15.6-11.86-9-18.6-4.12-26.36 6.53 39.86 3.74 24.74 33.32-1.9 8.66-13.69 18.11-24.69 31.38-55.74 24.85 0 0-24.42-4.7-26.19 2-6.08 23.31-10.14 21.49-10.14 21.49z" fill="#075985"/><path d="M154.36 948.69c0 7.95.14 14.16.69 21l-.14.08a149.52 149.52 0 0 0-8.33-16.59l-14.89-25.82h-6.54v51h5.65v-21.8c0-8.48-.14-14.61-.49-21l.21-.07a167.08 167.08 0 0 0 8.68 17l14.8 25.88h6v-51h-5.65zm28.64.75c-6.41-2.72-9.23-5.07-9.23-9.84 0-3.48 2.41-7.65 8.75-7.65a17.23 17.23 0 0 1 8.82 2.43L193 929a19.51 19.51 0 0 0-10.26-2.5c-9 0-15 5.91-15 13.86 0 7.19 4.69 11.51 12.27 14.46 6.27 2.65 8.75 5.38 8.75 10.15 0 5.15-3.58 8.71-9.72 8.71a19.86 19.86 0 0 1-10.75-3.34l-1.51 5.53c2.48 1.82 7.37 3.26 11.85 3.26 11 0 16.26-6.82 16.26-14.69-.01-7.5-4-11.66-11.89-15zm38.41 1.56v-.15a12 12 0 0 0 7.86-11.2c0-4-1.45-7-3.86-9-2.89-2.57-6.75-3.71-12.75-3.71a53.4 53.4 0 0 0-10.95 1.06v50.21a64.18 64.18 0 0 0 9.3.61c7.58 0 12.82-1.52 16.06-4.78a14.42 14.42 0 0 0 3.93-10.21 12.87 12.87 0 0 0-9.59-12.83zm-13.71-18.52a24.06 24.06 0 0 1 5.3-.48c6.06 0 10.2 2.35 10.2 8.33 0 4.92-3.72 8.55-10.06 8.55h-5.44zm5 41.2a28.81 28.81 0 0 1-5-.31v-19.46h5c6.55 0 12 2.88 12 9.85-.05 7.42-5.77 9.92-11.97 9.92zM288.88 927a63.33 63.33 0 0 0-11.51 1v50.43h6v-20.5a19.18 19.18 0 0 0 4.82.45c5.86 0 11-1.89 14.19-5.6 2.35-2.65 3.59-6.29 3.59-10.91s-1.52-8.25-4.07-10.68c-2.75-2.72-7.1-4.19-13.02-4.19zm-.55 26.13a18.3 18.3 0 0 1-5-.53v-19.89a23.08 23.08 0 0 1 5.65-.53c6.61 0 11 3.26 11 10 .02 7.04-4.42 10.9-11.65 10.9zm36.52-12.24c-9.23 0-16.54 7.19-16.54 19.46 0 11.58 7 18.85 16 18.85 8.06 0 16.61-5.9 16.61-19.46-.01-11.2-6.49-18.85-16.07-18.85zm-.27 33.32c-5.93 0-10.13-6.06-10.13-14.09 0-7 3.1-14.24 10.26-14.24s10 7.88 10 14.09c0 8.25-4.35 14.24-10.13 14.24zm28.11-25.3h-.27l-.21-7.19h-5.31c.21 3.41.28 7.12.28 11.43v25.22h6v-19.54a20.26 20.26 0 0 1 .28-3.1c.83-5 3.86-8.56 8.13-8.56a8.39 8.39 0 0 1 2.07.23v-6.29a6.08 6.08 0 0 0-1.72-.22c-4.08 0-7.73 3.11-9.25 8.02zm24.6-17.72l-5.92 1.75v8.78h-5.17v5.07h5.17v20c0 4.31.62 7.57 2.34 9.54a8.05 8.05 0 0 0 6.55 2.8 13.62 13.62 0 0 0 5.37-.91l-.27-5a12.23 12.23 0 0 1-3.52.46c-3.38 0-4.55-2.58-4.55-7.12v-19.77H386v-5.07h-8.69zm46.38-4.69c-12.4 0-21.57 10.6-21.57 26.81 0 15.44 8.61 25.89 20.88 25.89 11.85 0 21.57-9.31 21.57-26.88 0-15.14-8.2-25.82-20.88-25.82zm-.35 47.33c-9.44 0-14.81-9.77-14.81-20.68 0-11.2 5-21.27 14.88-21.27s14.82 10.6 14.82 20.74c0 11.59-5.38 21.21-14.89 21.21zm32.95-24.92H456l-.21-7.19h-5.3c.2 3.41.27 7.12.27 11.43v25.22h6v-19.54a21.69 21.69 0 0 1 .27-3.1c.83-5 3.86-8.56 8.13-8.56a8.39 8.39 0 0 1 2.07.23v-6.29a6 6 0 0 0-1.72-.22c-4.08 0-7.73 3.11-9.24 8.02zm38.73 6.97c0-7.34-2.48-15-12.68-15a19.28 19.28 0 0 0-10.95 3.25l1.38 4.4a15.49 15.49 0 0 1 8.68-2.73c6.82 0 7.58 5.45 7.58 8.48v.76c-12.9-.04-20.01 4.78-20.01 13.64 0 5.3 3.44 10.52 10.19 10.52a12.08 12.08 0 0 0 10.2-5.45h.21l.48 4.62h5.51a57 57 0 0 1-.55-8.78zM489.14 966a7.47 7.47 0 0 1-.35 2.12 8.4 8.4 0 0 1-8.06 6.13c-3.1 0-5.72-2-5.72-6.36 0-7.12 7.51-8.4 14.13-8.25zM520 940.89a12.15 12.15 0 0 0-11 6.89h-.13l-.35-6.06h-5.37l.27 9.92v26.73h6.07v-22a10.33 10.33 0 0 1 .41-3.11c1-3.71 4.13-6.82 8.13-6.82 5.72 0 7.72 4.93 7.72 10.83v21.13h6.06v-21.91c-.02-12.57-7.18-15.6-11.81-15.6zm43.42 6.36h-.13a11 11 0 0 0-10.41-6.36c-7.65 0-15 7-15 19.46 0 10.15 5.92 17.87 14.19 17.87a11.72 11.72 0 0 0 10.62-6.13h.13v4.08c0 9.24-4.54 12.8-10.75 12.8a17.57 17.57 0 0 1-9.78-2.87l-1.52 5.07c2.69 2 7.1 3 11.1 3 4.2 0 8.89-1.06 12.13-4.39 3.23-3.18 4.75-8.33 4.75-16.74v-21.25c0-4.47.14-7.42.28-10.07h-5.33zm-.68 15.52a12.43 12.43 0 0 1-.49 3.56c-1.31 4.24-4.68 6.82-8.4 6.82-6.55 0-9.86-6-9.86-13.18 0-8.48 4.14-13.86 9.92-13.86 4.42 0 7.38 3.18 8.48 7a10.26 10.26 0 0 1 .35 3zm27.9-21.88c-9.71 0-15.64 8.71-15.64 19.76s6.13 18.48 16.4 18.48a25 25 0 0 0 11.1-2.27l-1-4.77a20.21 20.21 0 0 1-9.23 1.89c-6.07 0-11.3-3.71-11.44-12.72h23.43a27.11 27.11 0 0 0 .21-3.11c-.04-6.74-2.94-17.26-13.83-17.26zm-9.78 15.6c.48-4.62 3.17-10.83 9.3-10.83 6.82 0 8.48 6.59 8.41 10.83zM663.21 927a78.91 78.91 0 0 0-12.75 1v50.21a87.71 87.71 0 0 0 10.89.61c9 0 16.19-2.58 20.53-7.35s6.68-11.51 6.68-19.84-2.41-14.16-6.54-18.32-10.2-6.31-18.81-6.31zm-.69 46.57a34.94 34.94 0 0 1-6.07-.37v-40.34a31.09 31.09 0 0 1 7-.68c12.68 0 18.88 7.65 18.81 19.69.03 13.78-6.93 21.65-19.74 21.65zm55.68-17.69c0-7.34-2.48-15-12.68-15a19.31 19.31 0 0 0-11 3.25l1.38 4.4a15.49 15.49 0 0 1 8.68-2.73c6.82 0 7.58 5.45 7.58 8.48v.76c-12.88-.08-20.05 4.77-20.05 13.63 0 5.3 3.44 10.52 10.2 10.52a12.1 12.1 0 0 0 10.2-5.45h.2l.49 4.62h5.51a55.79 55.79 0 0 1-.55-8.78zM712.34 966a7.82 7.82 0 0 1-.34 2.12 8.42 8.42 0 0 1-8.07 6.13c-3.1 0-5.72-2-5.72-6.36 0-7.12 7.51-8.4 14.13-8.25zm27.66-2.77l-2.13 7.64h-.14l-2.14-7.49-7.3-21.66h-6.62L734 975.49a6.58 6.58 0 0 1 .41 1.74 5.08 5.08 0 0 1-.48 1.6 20.23 20.23 0 0 1-5.1 7.42 15.77 15.77 0 0 1-5.3 3.25l1.51 5.61a16 16 0 0 0 7.44-4.32c4.14-3.94 7.1-10.37 11.44-22.94l9.1-26.13h-6.41zm24.44-32.04l-5.93 1.75v8.78h-5.17v5.07h5.17v20c0 4.31.62 7.57 2.35 9.54a8 8 0 0 0 6.54 2.8 13.71 13.71 0 0 0 5.38-.91l-.28-5a12.21 12.21 0 0 1-3.51.46c-3.38 0-4.55-2.58-4.55-7.12v-19.77h8.68v-5.07h-8.68zm27.84 9.7c-9.24 0-16.54 7.19-16.54 19.46 0 11.58 7 18.85 16 18.85 8.06 0 16.6-5.9 16.6-19.46-.01-11.2-6.48-18.85-16.06-18.85zm-.28 33.32c-5.92 0-10.13-6.06-10.13-14.09 0-7 3.1-14.24 10.27-14.24s10 7.88 10 14.09c-.01 8.25-4.35 14.24-10.14 14.24zm39.21-33.32a12.12 12.12 0 0 0-11 6.89h-.14l-.34-6.06h-5.38l.28 9.92v26.73h6.06v-22a10.66 10.66 0 0 1 .41-3.11c1-3.71 4.14-6.82 8.14-6.82 5.71 0 7.71 4.93 7.71 10.83v21.13H843v-21.91c0-12.57-7.17-15.6-11.79-15.6zm43.69 14.99c0-7.34-2.48-15-12.68-15a19.28 19.28 0 0 0-11 3.25l1.38 4.4a15.49 15.49 0 0 1 8.68-2.73c6.82 0 7.58 5.45 7.58 8.48v.76c-12.89-.08-20 4.77-20 13.63 0 5.3 3.44 10.52 10.19 10.52a12.08 12.08 0 0 0 10.2-5.45h.21l.48 4.62h5.51a57 57 0 0 1-.55-8.78zM869.05 966a7.47 7.47 0 0 1-.35 2.12 8.4 8.4 0 0 1-8.06 6.13c-3.1 0-5.72-2-5.72-6.36 0-7.12 7.51-8.4 14.13-8.25z" fill="#0284c7"/><path d="M149 70.1l.82-12.19a42.56 42.56 0 0 1-13 2.28q-10.22 0-15.89-7.31a27.39 27.39 0 0 1-5.67-17.28q0-9.75 4.78-16.56 4.78-6.81 14.57-6.81a32.64 32.64 0 0 1 10.89 2L147.18 2A40.79 40.79 0 0 0 136 .51q-16 0-25.2 11a39.25 39.25 0 0 0-9.19 25.91q0 14.37 8.66 24.41 8.66 10.04 25.2 10A53 53 0 0 0 149 70.1zm46.49-45.39A22.41 22.41 0 0 0 179 17.79a24.1 24.1 0 0 0-17.66 7.58q-7.52 7.57-7.52 21 0 12.45 6.9 19.32a22.62 22.62 0 0 0 16.54 6.86A24 24 0 0 0 194.88 65q7.49-7.52 7.48-20.88 0-12.5-6.87-19.41zm-8.93 33.2q-3.19 4.88-8.32 4.88-5.13 0-8.53-5.22a23.78 23.78 0 0 1-3.28-12.91 21.73 21.73 0 0 1 3.21-12.19q3.2-4.87 8.32-4.87 5.12 0 8.53 5.22a23.77 23.77 0 0 1 3.28 12.9 21.71 21.71 0 0 1-3.21 12.19zM251.36 20l-13 .47q.58 10 .58 37.85a16.14 16.14 0 0 1-9.74 3q-5.16 0-6.92-4.5-1.76-4.5-1.78-17.51 0-9.12.77-19.29l-13.46.53q.91 12.87.92 18.76l-.07 5.19-.08 4.61q0 13.74 4 18.32 4 4.58 12 4.58a21.3 21.3 0 0 0 14.75-5.72h.78a18.2 18.2 0 0 0 .77 4.55l11.28-.42A240.27 240.27 0 0 1 250.88 46q0-16 .48-26zm31.89 9.08q4.58 0 6.82 3 2.24 3 2.24 11.29 0 13.72-1.06 27.13h12.83q-.24-17.53-.24-24.7l.12-5.27.12-4.11q0-10.33-4.46-14.17-4.46-3.84-11.89-3.85a21.46 21.46 0 0 0-15.19 6.26h-.77L271 19l-12.4 1.49A116.45 116.45 0 0 1 261 44.4q0 9.48-.86 26.07h13q0-16.59-.24-37.26a16 16 0 0 1 10.35-4.13zm47.65 10.28a29.68 29.68 0 0 1-6.71-3.42 4.4 4.4 0 0 1-1.64-3.57q0-4.35 7.72-4.35A29.68 29.68 0 0 1 342 30.35l1.64-10.49q-4.87-1.65-13.41-1.65-9.12 0-13.89 4.3a14.52 14.52 0 0 0-4.77 11.34A13.31 13.31 0 0 0 316 44q3.24 3 10.33 6 8.1 3.51 8.1 7.37a3.65 3.65 0 0 1-2.24 3.55Q330 62 324.19 62a32.39 32.39 0 0 1-12-2.38l-1.64 10.44a45.05 45.05 0 0 0 13.64 1.85q21.42 0 21.42-15.9a14.22 14.22 0 0 0-4.53-10.86q-3.19-2.98-10.18-5.79zM374 18q-11.19 0-17.49 8.29a31.52 31.52 0 0 0-6.29 19.59 27.33 27.33 0 0 0 6.63 18.49Q363.5 72 376 72q9.84 0 16.49-2.65l1-10.28A54.93 54.93 0 0 1 378 61.46a14.26 14.26 0 0 1-10.51-4 16.13 16.13 0 0 1-4.68-10l31.06-.58q.28-4.35.29-7 0-9.75-5-15.85-5-6.1-15.16-6.03zm-11.27 21.84q1.69-12.62 10.71-12.62 9.45 0 9.45 12.19zm39.41 30.63h13.17q-.74-18.07-.73-39.38 0-21 .73-36L401.37-4q1.49 14.47 1.49 35.14 0 21.16-.72 39.33zm22.96 0h13q-.68-11.55-.67-25.17 0-16 .62-26.24l-13.92 1.54a162.63 162.63 0 0 1 1.64 24.7q0 14.21-.67 25.17zm6.7-57.34a7.66 7.66 0 0 0 6.25-2.71 9.59 9.59 0 0 0 2.24-6.3 8.54 8.54 0 0 0-1.86-5.54 6.38 6.38 0 0 0-5.28-2.31 7.8 7.8 0 0 0-6.29 2.65 9.36 9.36 0 0 0-2.24 6.26 8.56 8.56 0 0 0 1.9 5.61 6.43 6.43 0 0 0 5.28 2.34zm27.78 57.34q0-16.59-.24-37.26a16 16 0 0 1 10.42-4.13q4.59 0 6.82 3 2.23 3 2.25 11.29 0 13.72-1.06 27.13h12.83q-.25-17.53-.24-24.7l.12-5.27.12-4.11q0-10.33-4.47-14.17-4.47-3.84-11.88-3.85a21.48 21.48 0 0 0-15.2 6.26h-.77l-.82-5.66-12.34 1.48a116.45 116.45 0 0 1 2.36 23.91q0 9.48-.87 26.07zm86.05 5.25q0-14.48-19.34-14.47-11.19 0-14.29-1.25a4.57 4.57 0 0 1-3-4.58c0-1.38.86-2.49 2.56-3.34a31.36 31.36 0 0 0 8.05.85q10.08 0 15.17-5.35a18.11 18.11 0 0 0 5.09-12.94 15 15 0 0 0-2.84-8.9v-.69q1.88-2.39 9.4-2.38l1.06-9.86a11.89 11.89 0 0 0-5.5-1.22q-8 0-9.35 10h-.68q-4.77-3.18-12.44-3.18-11.25 0-16.62 5.24a17.51 17.51 0 0 0-5.38 13q0 9.12 7.82 13.41v.74q-5.55 3.93-5.55 9.75 0 5.82 4.05 8.59V70a10.1 10.1 0 0 0-5.84 4.1 13.24 13.24 0 0 0-2.53 8.19q0 15.58 22.57 15.58 11.53 0 19.58-6a19.1 19.1 0 0 0 8.01-16.15zm-33.16-47a9.27 9.27 0 0 1 6.34-2.41 9.39 9.39 0 0 1 6.42 2.49c1.86 1.66 2.8 4.08 2.8 7.26s-.91 5.4-2.73 7a9.29 9.29 0 0 1-6.25 2.36 9.6 9.6 0 0 1-6.51-2.44c-1.86-1.62-2.79-4-2.79-7.15s.9-5.54 2.72-7.15zm17.24 58.54q-4 2.86-10.9 2.86-12.34 0-12.34-10.17a9.16 9.16 0 0 1 4.24-8.22q5.51.53 10.9.53c4.44 0 7.56.58 9.38 1.75s2.72 3.06 2.72 5.67a8.88 8.88 0 0 1-4 7.54zm18.57-38.52l20.64-.79.58-9.54-20.78.79-.44 9.54zm19.25-35.83q11.87-.84 18.66-.84.19 10.23.2 22.31 0 19.24-.63 36.09h13.5q-.53-17-.53-36.09 0-12.3.1-22.31 8.53 0 18.18.79l.34-11.39h-49.44zM651.45 32q2.17 2.94 2.17 12.38 0 12.66-1.06 26.07h12.83q-.24-17.53-.24-26.39 0-1 .12-4.11l.12-4.11q0-9.75-4.41-13.62-4.41-3.87-12.18-3.85-8.2 0-14.57 6.42h-.63q0-12.61.73-29.68L620.68-4a340.17 340.17 0 0 1 1.49 35.14q0 23-.53 39.38h12.83Q634 55.47 634 33a16.89 16.89 0 0 1 10.32-3.87q4.96-.05 7.13 2.87zm46.35 40q9.84 0 16.5-2.65l1-10.28a54.81 54.81 0 0 1-15.38 2.38 14.27 14.27 0 0 1-10.52-4 16.13 16.13 0 0 1-4.68-10l31.06-.58.29-7q0-9.75-5-15.85-5-6.1-15.2-6.02-11.19 0-17.48 8.29a31.46 31.46 0 0 0-6.29 19.59 27.33 27.33 0 0 0 6.63 18.49Q685.36 72 697.8 72zm-2.51-44.79q9.47 0 9.46 12.19l-20.16.43q1.68-12.6 10.7-12.61zm27.35 43.26h12.83q-.29-11.38-.29-32.54 2.27-7 9.36-7a17.62 17.62 0 0 1 7.23 1.59l2.8-12.4a21.31 21.31 0 0 0-7.81-1.75q-7.38 0-11.82 7.48h-.77c0-.67-.28-3-.82-6.84l-12.3 1.48a114.16 114.16 0 0 1 2.41 23.91q0 10.13-.82 26.07zm40.54-25.33a16.39 16.39 0 0 0-6.2 13.2 12.68 12.68 0 0 0 4 9.77 14.15 14.15 0 0 0 10 3.69q9 0 14.32-5h.63a12.49 12.49 0 0 0 .77 4l11.38-.42a86.45 86.45 0 0 1-1.54-18l.17-7.84.17-8.11q0-10.07-4.75-14.1-4.75-4.03-13.48-4-12 0-18.52 2.49l-1.06 9.76a48.22 48.22 0 0 1 14.22-2.12c4.47 0 7.55.61 9.22 1.83s2.5 3.73 2.5 7.55q0 .84-.09 1.8-15.53.36-21.74 5.5zm22 14.26a14.51 14.51 0 0 1-9.5 3.12q-7.25 0-7.24-6.3 0-9.18 16.45-9.17.02 5.19.31 12.35zm61.32-33.74a17.26 17.26 0 0 0-14.66-7.34q-8.88 0-14 5.25H817l-.69-4.57L804 20.49q2.5 13.47 2.51 39.12 0 19.88-.87 35.08h13.12q-.35-13.31-.34-26.28h.58q2.89 3.6 10.61 3.6a18.84 18.84 0 0 0 16.35-8.69 34.75 34.75 0 0 0 6-20.2 28.68 28.68 0 0 0-5.46-17.46zM836 57.14a10.29 10.29 0 0 1-9.51 5.22 11.69 11.69 0 0 1-7.86-2.59q0-12.41-.72-27.3 3.09-4.29 9.74-4.29A9.44 9.44 0 0 1 836 33a21.11 21.11 0 0 1 3 11.5 24.48 24.48 0 0 1-3 12.64zm47.32-17.49q-4 15.09-4 18.16h-.68q0-3.62-4.39-19.72-4.39-16.1-4.39-18H855q0 1 8.68 22.29 8.68 21.29 8.67 27.62a13.25 13.25 0 0 1-3.86 10 13.55 13.55 0 0 1-9.84 3.73l1 10.23q10.23 0 15.34-4.87 5.29-5 8.44-18.29 1.83-7.68 9.69-28.83Q900 23.57 900 20.12h-12.7q0 4.46-3.98 19.53z" fill="#0c4a6e"/></svg>