<?xml version="1.0" encoding="utf-8"?><svg xmlns="http://www.w3.org/2000/svg" viewBox="0 0 1000 1000"><path d="M203.17 878v-40.44h5.19L220.15 858a118.86 118.86 0 0 1 6.61 13.14l.11-.06c-.44-5.4-.55-10.32-.55-16.62v-16.9h4.48V878H226l-11.68-20.52a132.43 132.43 0 0 1-6.88-13.5l-.16.06c.27 5.1.38 10 .38 16.68V878zm34.18-6.36a15.73 15.73 0 0 0 8.52 2.64c4.86 0 7.7-2.82 7.7-6.9 0-3.78-2-5.94-6.94-8-6-2.34-9.72-5.76-9.72-11.46 0-6.3 4.75-11 11.91-11a15.52 15.52 0 0 1 8.13 2l-1.31 4.26a13.65 13.65 0 0 0-7-1.92c-5 0-6.93 3.3-6.93 6.06 0 3.78 2.24 5.64 7.31 7.8 6.23 2.64 9.39 5.94 9.39 11.88 0 6.24-4.2 11.64-12.88 11.64-3.55 0-7.43-1.14-9.39-2.58zm26.48-33.54a42 42 0 0 1 8.68-.84c4.75 0 7.81.9 10.1 2.94a8.81 8.81 0 0 1 3.06 7.14 9.53 9.53 0 0 1-6.22 8.88v.12a10.18 10.18 0 0 1 7.55 10.14 11.42 11.42 0 0 1-3.11 8.1c-2.56 2.58-6.71 3.78-12.72 3.78a50.62 50.62 0 0 1-7.37-.48zm4.75 16.56h4.31c5 0 8-2.88 8-6.78 0-4.74-3.28-6.6-8.08-6.6a18.66 18.66 0 0 0-4.21.36zm0 19.38a23.14 23.14 0 0 0 4 .24c4.91 0 9.44-2 9.44-7.86 0-5.52-4.31-7.8-9.5-7.8h-3.93zm55.2-36.04a50.23 50.23 0 0 1 9.12-.78c4.69 0 8.13 1.2 10.32 3.36a11.4 11.4 0 0 1 3.22 8.46 12.64 12.64 0 0 1-2.84 8.64c-2.51 2.94-6.61 4.44-11.25 4.44a14.9 14.9 0 0 1-3.82-.36V878h-4.75zm4.75 19.5a14.57 14.57 0 0 0 3.93.42c5.73 0 9.23-3.06 9.23-8.64 0-5.34-3.44-7.92-8.68-7.92a18.2 18.2 0 0 0-4.48.42zm45.59 5.74c0 10.74-6.77 15.42-13.16 15.42-7.15 0-12.66-5.76-12.66-14.94 0-9.72 5.78-15.42 13.1-15.42 7.6 0 12.72 6.06 12.72 14.94zm-21 .3c0 6.36 3.33 11.16 8 11.16s8-4.74 8-11.28c0-4.92-2.24-11.16-7.92-11.16s-8.04 5.74-8.04 11.28zm25.97-5.54l-.22-9.06h4.21l.16 5.7h.22c1.2-3.9 4.09-6.36 7.31-6.36a4.79 4.79 0 0 1 1.37.18v5a6.58 6.58 0 0 0-1.64-.18c-3.38 0-5.79 2.82-6.44 6.78a16.17 16.17 0 0 0-.22 2.46V878h-4.75zM403 840.62V849h6.88v4H403v15.66c0 3.6.93 5.64 3.6 5.64a9.8 9.8 0 0 0 2.79-.36l.22 4a10.84 10.84 0 0 1-4.26.72 6.37 6.37 0 0 1-5.19-2.22c-1.36-1.56-1.86-4.14-1.86-7.56V853h-4.09v-4h4.09v-7zm53.24 16.74c0 13.92-7.7 21.3-17.09 21.3-9.72 0-16.55-8.28-16.55-20.52 0-12.84 7.27-21.24 17.09-21.24 10.05 0 16.55 8.46 16.55 20.46zm-28.56.66c0 8.64 4.26 16.38 11.74 16.38s11.79-7.62 11.79-16.8c0-8-3.82-16.44-11.74-16.44s-11.79 7.98-11.79 16.84zm33.47-.02l-.22-9.06h4.21l.16 5.7h.22c1.2-3.9 4.09-6.36 7.32-6.36a4.76 4.76 0 0 1 1.36.18v5a6.58 6.58 0 0 0-1.64-.18c-3.38 0-5.78 2.82-6.44 6.78a16.17 16.17 0 0 0-.22 2.46V878h-4.75zm31.12 20l-.38-3.66h-.16a9.6 9.6 0 0 1-8.08 4.32c-5.35 0-8.08-4.14-8.08-8.34 0-7 5.67-10.86 15.88-10.8v-.6c0-2.4-.6-6.72-6-6.72a12.31 12.31 0 0 0-6.88 2.16l-1.09-3.48a15.29 15.29 0 0 1 8.68-2.58c8.08 0 10 6.06 10 11.88V871a44.54 44.54 0 0 0 .44 7zm-.71-14.82c-5.24-.12-11.19.9-11.19 6.54 0 3.42 2.08 5 4.53 5a6.65 6.65 0 0 0 6.39-4.86 6.14 6.14 0 0 0 .27-1.68zm11.31-6.36l-.22-7.86h4.26l.27 4.8h.11a9.62 9.62 0 0 1 8.71-5.46c3.66 0 9.34 2.4 9.34 12.36V878h-4.8v-16.74c0-4.68-1.59-8.58-6.12-8.58-3.17 0-5.62 2.46-6.44 5.4a8.23 8.23 0 0 0-.33 2.46V878h-4.8zm51.97-7.82l-.21 8v16.8c0 6.66-1.21 10.74-3.77 13.26s-6.28 3.48-9.61 3.48c-3.17 0-6.66-.84-8.79-2.4l1.2-4a13.92 13.92 0 0 0 7.75 2.28c4.92 0 8.52-2.82 8.52-10.14V873h-.11a9.26 9.26 0 0 1-8.41 4.86c-6.55 0-11.24-6.12-11.24-14.16 0-9.84 5.84-15.42 11.9-15.42a8.7 8.7 0 0 1 8.24 5h.11l.22-4.38zm-5 11.46a8.16 8.16 0 0 0-.28-2.4c-.87-3.06-3.22-5.58-6.71-5.58-4.59 0-7.86 4.26-7.86 11 0 5.7 2.62 10.44 7.8 10.44a7.12 7.12 0 0 0 6.66-5.4 9.79 9.79 0 0 0 .39-2.82zm14.34 3.98c.11 7.14 4.26 10.08 9.06 10.08a16 16 0 0 0 7.32-1.5l.82 3.78a19.76 19.76 0 0 1-8.79 1.8c-8.14 0-13-5.88-13-14.64s4.7-15.66 12.4-15.66c8.62 0 10.92 8.34 10.92 13.68a20.34 20.34 0 0 1-.17 2.46zm14.09-3.78c.05-3.36-1.26-8.58-6.66-8.58-4.86 0-7 4.92-7.37 8.58zm41.11-22.56a62 62 0 0 1 10.1-.84c6.82 0 11.68 1.74 14.9 5s5.19 8 5.19 14.52-1.86 12-5.29 15.72-9.12 5.82-16.27 5.82a69.81 69.81 0 0 1-8.63-.48zm4.75 35.76a27.31 27.31 0 0 0 4.8.3c10.16 0 15.67-6.24 15.67-17.16.06-9.54-4.86-15.6-14.9-15.6a24.66 24.66 0 0 0-5.57.54zm44.99 4.14l-.38-3.66h-.17a9.57 9.57 0 0 1-8.08 4.32c-5.35 0-8.08-4.14-8.08-8.34 0-7 5.68-10.86 15.89-10.8v-.6c0-2.4-.6-6.72-6-6.72a12.28 12.28 0 0 0-6.87 2.16l-1.1-3.48a15.32 15.32 0 0 1 8.67-2.58c8.08 0 10 6.06 10 11.88V871a44.54 44.54 0 0 0 .44 7zm-.71-14.82c-5.24-.12-11.19.9-11.19 6.54 0 3.42 2.07 5 4.53 5a6.66 6.66 0 0 0 6.39-4.86 6.14 6.14 0 0 0 .27-1.68zM681 849l5.79 17.16 1.69 5.94h.11l1.69-6.06 5.24-17h5.08l-7.2 20.7c-3.44 10-5.79 15.06-9.07 18.18a12.63 12.63 0 0 1-5.89 3.42l-1.21-4.44a12.36 12.36 0 0 0 4.21-2.58 15.9 15.9 0 0 0 4-5.88 4 4 0 0 0 .38-1.26 5 5 0 0 0-.33-1.38l-9.71-26.8zm28.69-8.38V849h6.88v4h-6.88v15.66c0 3.6.93 5.64 3.6 5.64a9.72 9.72 0 0 0 2.78-.36l.22 4a10.81 10.81 0 0 1-4.26.72 6.35 6.35 0 0 1-5.18-2.22c-1.37-1.56-1.86-4.14-1.86-7.56V853h-4.09v-4h4.1v-7zm34.77 22.62c0 10.74-6.76 15.42-13.15 15.42-7.15 0-12.67-5.76-12.67-14.94 0-9.72 5.79-15.42 13.1-15.42 7.59 0 12.72 6.06 12.72 14.94zm-21 .3c0 6.36 3.33 11.16 8 11.16s8-4.74 8-11.28c0-4.92-2.24-11.16-7.92-11.16s-8.04 5.74-8.04 11.28zm25.98-6.72l-.22-7.86h4.26l.27 4.8h.11a9.62 9.62 0 0 1 8.73-5.46c3.66 0 9.34 2.4 9.34 12.36V878h-4.8v-16.74c0-4.68-1.59-8.58-6.12-8.58-3.17 0-5.62 2.46-6.44 5.4a8.23 8.23 0 0 0-.33 2.46V878h-4.8zM793.28 878l-.38-3.66h-.17a9.57 9.57 0 0 1-8.08 4.32c-5.35 0-8.08-4.14-8.08-8.34 0-7 5.68-10.86 15.89-10.8v-.6c0-2.4-.6-6.72-6-6.72a12.34 12.34 0 0 0-6.88 2.16l-1.09-3.48a15.32 15.32 0 0 1 8.68-2.58c8.08 0 10.05 6.06 10.05 11.88V871a44.54 44.54 0 0 0 .44 7zm-.71-14.82c-5.24-.12-11.19.9-11.19 6.54 0 3.42 2.07 5 4.53 5a6.64 6.64 0 0 0 6.38-4.86 5.8 5.8 0 0 0 .28-1.68z"/><circle cx="601" cy="860" r="8"/><circle cx="305" cy="860" r="8"/><path d="M322.86 464.49c-10-13.68-17.68 1.67-27.17 9 11.88 11.96 25.87 8.23 27.17-9zm363.92-87.31c7.8 13.71 24.7 3.39 23.37-11.65-4.34-16.04-24.15-2-23.37 11.65zM532.69 258.31c22.55-10.84 3.75 5.62 22.76 18.35 18.99-17.66-26.39-49.86-22.76-18.35zM304.34 368.44c27.7-22.34-38-40-9.46-3.39 1.22 2.11 7.32 4.28 9.46 3.39zm-15.5 42.35c17.81-11.51 5-22.25-8.8-28.25-10.29 3.85-.8 23.84 8.8 28.25zm23.44-68.32c16.1-10.6 2.5-22.16-.73-37.51-11.55 14.71-10.74 26.41.73 37.51zm376.14-18.78c-14.27 16.49-14.81 20.68-3.52 32.42 12.64-10.18 13.51-19.88 3.52-32.42zm-6.87 148.82c-16.63 21.84 36.32 29 13.6 4.16-3.23-4.13-7.8-9.94-13.6-4.16zM702.37 417c10.35 18.91 18.81-7 20-16.64-15.58.04-22.79 6.64-20 16.64zM377.09 279.13C359.27 287.34 356 297 367.81 308c12.29-8.1 10.53-18.21 9.28-28.87zm-25.23 35.09c7.41-9.69-3.37-22.39-20.47-21.93 6.1 8.6 6.39 24.86 20.47 21.93zM353 289c7.26-9.78 3.65-22.06-8.4-28.54-6 14.95-3.79 22.44 8.4 28.54zm257.11-49.42c-17.39 10-17.81 10.95-11.25 25.71 11.82-1.85 16.55-12.66 11.25-25.71zm25.2 78.36c5.92-14.34 2.18-22.49-12.14-28.43-.59 10.77-2.78 21.65 12.14 28.43zM400.89 259c6.19-15.75 3.45-20.81-15.09-28.75 1.6 11.08 1.64 21.81 15.09 28.75zm38.42-15.2c11.44-5.4 1.33-19.61 2.43-31.41-12.11 10.23-14.74 26.81-2.43 31.41zm122.19-23.74c-8.57 9.83-10.35 19.53-.83 30.39 10.25-8.92 10.33-16.45.83-30.39zM645 320.21c10.58 14 23-4 18.46-15.44-11.22 2.12-19.46 5.47-18.46 15.44zm-198.74-48.07c8.16-5 16-26.73 4.31-28.84-3 9.89-16.69 20.29-4.31 28.84zm202.03 27.1c13.05-5.83 6.48-16.49 7.79-28-14.63 6.56-16.77 19.1-7.79 28zM472.15 315.6c21.71 3.49-6.61-12.85 2.71-30.2-13.86 13.87-14.15 21.98-2.71 30.2zM298.26 420.82c-12.24-8.36-14.39-8.13-27.8 2.6 10.85 8.58 15.54 8.21 27.8-2.6zm220.17-195.51c2-6.08 2.15-12.62 3-19-12.53-5.85-24.02 34.79-3 19zm-110.72 62.58c2.43-15.21 1.89-15.84-15.81-19.34-.9 11.71 3.57 17.45 15.81 19.34zm225.93-6.82c8.11-9.48 6.94-14.49-7.07-25.6 1.43 8.66-7.31 19.36 7.07 25.6zm-23.58-3.72c-17.3-.76-20.37 2.64-16.24 16.72 12.66-.07 14.56-7.79 16.24-16.72zM308.82 419.76c7.69-8.68 6-17.05 1.25-26.07-10.86 10.31-11.29 16.93-1.25 26.07zm13.94-57.62c8.81-3.11 16.86-18.15 7.85-22.56-6.61 7.28-15.52 12.93-7.85 22.56zm96.86-99.21l6-25.31c-18.8 10.86-20.22 16.12-6 25.31zm58.2-15.51c13.23-6.19.07-17.53-12.14-17.48-1.14 9.59 3.19 15.06 12.14 17.48zm209.86 159.85c-1.72 8.65-6.12 17 3.7 23.36 8.15-5.94 5.15-21.63-3.7-23.36zm-314.8-143.78c-.76-6 4.59-17.87-4.77-18.73-5.64 7.3-7.68 34.76 4.77 18.73zm241.33 85.27l10.45-18.5c-18.8 1.46-21.82 7.48-10.45 18.5zM375 318.88l12.42 22.61c9.63-14.39 6.32-19.73-12.42-22.61zm154.82-108.3l12.85 23.44c8.08-12.48 5.77-16.4-12.85-23.44zm80.26 117.93l3.28-25.82c-15.7 10.55-16.49 16.31-3.28 25.82zm63.14 50.11c9.72-12.89 6.14-20.42-9.79-24.56zM499 247.42c-2.66-6.68 3.94-24.36-6.52-23.3-4.17 7.43-8.31 24.88 6.52 23.3zm74.52-2.42l8.62 22.94c9.27-9.59 6.32-16.22-8.62-22.94zm-112.87-39.38c-1.25 6.11-14.74 16.93-5.9 20 10.79-3.1 12.42-6.47 5.9-20zm13.62-4.84L482 223.3c9.77-10.76 7.59-16.2-7.73-22.52zm223.36 388.35c-53.85 19.36-40.3-17.43-122.92 18.56-53.86 5.55-46.66-108.16 5.23-124 31.85-22.13 55.2 11.95 48.16 37.86 11.51-6.89 27.47-8.6 7.15-18.87-5.07-6.06-3.19-10.91 10.54-10.45-24.92-10.71-34.39-23.56-.73-19.54 23.37 5.17 31.65-5.35 42-19.71 20.05 19.56 31.43-3.9 1.43-6.87 5.84-8.44 10.91-12.32 19.84-5.18 37.86 11.84 6.54-34.59-31.86 12.37-35.32 27.59 4.36-51.67 6.46-69.73-11.18 25.66-46.22 35.44-19.85 2.9-8.83-9.05-9 2-13.16 8.41-10.77-4.38 1.06-15.39 6.62-21.33-22.54.38 9.14-16-.25-24.49-8.46 17.91-28.85 24.8-16.57 38.5h-11.4c13.82 6.22 44 43.46 12.73 34.52 5 12.06 22.55 15.81 7.07 25.48-26 16.74-51.41 11.75-28.87-15.76 33.47-17.73-3.12-1.65 4.63-36.51-8.89-5.26-2.47 32.5-4.3 33.77-28.51-31 10.77 31.25-22.28 6.23 14.2 26-33.14 30.72-53.81 44.4-29.79 15.16 18-58.23 42.5-63 26.48-11.37 38.48-35.3 51.26-56.68 2.33-21.38 42.55-22.48.9-29.24-.87 10.05 4.4 17.8-10.59 8.75 7 17.7 5.26 22.35-11.54 32-7.69-12.8-14-45.63-28.28-46.14 24.84 32.64-3.84 8.28-9 24.34 22.88-1.48 40.83 27.06 7.63 11.17.14 14 7 19.66 20 20.17-1.91 15.61-25.89 29.69-52.94 29 7.39-8.55 22.78-31.36 1.21-18.07l-2.24-17.8c17.94 6.71 26.64-24.88 7.12-14.54-4.41-9.27 19.4-19.32 21.06-29.2 6.37-22.76 16.36-28.28-.22-49 .41 40.48 10.05 26.59-15.75 24 15 20.68 12.46 21.45-9.48 36.31-6.65 1.52 17.16-67.71 16-68.79-10.27-1.71-12.45 16.16-27.24 7.48C541.14 292.8 562.94 292 558 304c-5.33 6.67-4.9 26.47-15.51 24.66 1.22-11.32 3.21-17.5-9.88-21.57-10.62 8.8 3.26 8.8-5.45 19.46 16.51-5.61 10.51 11.6 13 20.57 8.24 74.56-4.07 115.66-36.61 17.9 12.24 2.46 12-8.4 16.62-15.65-23.55 8.25 2.31-51.73 22-54.6.3-.08.15-1.32.27-2.72-27.59-8.26 24.16-27.15-31.44-26 15.32 13.1 23.16 15.55 11.9 34.19-13.68-21.24-16.5-30.44-10.29-53.83-20.39 24-17-10.12-37.32 20 5.16 5.69 13.07-3 23.51-5.72-2.34 11-14.23 27.06 4.18 16 12.32 22.65 10.47 52.81-8.62 71.15-1-31.26 20.07-6.56-2.15-50.87-9.85 1.32 2.67 15.36 1.06 21.15-15.93 34 2.38 67.41 13.24 100-18.18 4.62-14.74-52.9-38.08-33.11 10.85 11.12 16.4-1.48 15.35 21.5-45.15 10.78 60.92 9.77 17 73.69-43.56-73.12-42.63-81.45-37.84-163.36-8.75 30.84-28-26-13.92-28 4.44-2.56 10.21-8.95 8.89-14.3-14.88 10.1-19.09-1.8-27.64-6.89l20.27 72.57c-37.7-24-15.44-20-18.59-41.79-14.27 16.39-10.3-13.64-26.41 1.73 3.7 3.87 10.36 7.65 10.77 11.88-2.69 16.3 55.35 62.49 16.66 37.91-.83 15.38 2.49 19.52 17.07 22.15-2.95 28.64-4.27 45.44-37.58 23 .33-6.52 8.72-14.94-.38-16.44-9.26 20.06-12.59 5.49-18.55-7.07 15 2.66 21.88-4.18 18.39-16.64-17.59 9.29-18 4.66-12.2-10.3 17 6.38 34.95-10.2.62-7.59-6-6.32 18.93-9.32 4.68-21.22l-20.17 48.75c-16.18-14.6-22.14-20.13-9.39-36.69-20.52 11-8.3-5.23-15.54-10.8-8 11.8-28.07.89-7.22 16.12 15.62 12.2 22.67 34.06 32.41 50.55 25.74 37.44 85.8 48.9 84.54 101.18-13.58-25.56-73.11-20.37-63.54-52 9.64-22.32-3.26-12.16-11.33 1.64-16.11-8 6.12-15.66-.33-23.73-25.18 16.39-3.13-13.19-17.73-13.9v14.33c-19-9.74-11.89 17.92 4.62 5.59 33 46.35-27.65 39.48-34 7.76 13.12-8.74 14.12-12.66-3.46-12.28l14.31-26c9-2.46 15.94-6.08 4.88-11.38 8.44-8-2.64-10.63-5.48-15.66-3.7-7.93-6.36-15.75-15.76-20.27-12.41 8.48 30.89 23.49.95 24.22 17.78 8.55 14.71 29.15-.51 9.5l-4.07 2.05c19.35 46-10.87 11.28-21.44-4.82 5 20.05 43.44 111.52 1.9 65.33 2.47-7.44 16-15.89 6.69-19.82-5.93 3.81-9.64 15.59-17.62 8.54 3.93 12.07-23.36 10-20.15 19.56 4.51 1.51 9.3 4.62 13.45 4.09 23.77-17.91 18.39 23.5 49.11 16.08 31.4-3 37.6 2.38 12.29 19.75 8.83 1.49 8.83 1.49-7.73 19.41l9 4-14.42 23.24c24.64-1 9.41-32 28.61-15-9.16-18.74-5.53-44.43 23.41-43.9 77.6 9.63 88.66 143.25 25.1 131.19-34.54-15.24-62.4-23.47-100.11-18.88-24.05-19.3-109.82-20.46-35.43-5.84 40.77 18 29.78 21.91-9.11 24.33 20.34 19.61 96-27 77.44 1.34-20 24-47.37 18.74-77.48 15.08 8.55 10 33.87 8.17 51.6 12.11-41.91 39.45-16.16 5.23-5.45 32.23 6.3-27.67 29.65-60.32 63.3-50.81 5.67 2.37 7.4 6 2 9-7.49 4.07-16 6.76-23.06 9.62 19.7 4.46-4.38 21.66-9.06 31.37-16.91 19.71-14.15 17.71 8.33 5.17.9 9.72-1.76 13.93-11.61 18.81-27.61 5.68-18.65 62.23-9.86 18.17 4.3-3.77 15.87-6.16 20.92-3.84 22.59 10.39 0 19.73-.78 31.54 21.51-20.3 31-10.18 19.61 12.19-2.74 8.88-3.9 17.49 4.82 25.78 3.48-9.46-3.48-28.1 8.12-29.73 5.18 10.46 24.26 54.55 20 27.16-21.67-53.76-92.92-155.72 37.23-131.27-20.09 4.43-72.1 33-61.56 38.36 11.64-2.59 20.25-4.34 18.29 9.74-5.44 32.54 7.51 5.7 9.37-8.61 3.55-22.66 40.45-21.25 59.32-31.2-5.7 29.32-56.36 34.19-52.28 66.09 4.1 14.67-19.27 29.67-3.09 40.79C436 714 453 773.53 441.6 788.93c11.18-13 12.37-25.62 10.87-41.43 28.63 10.51 22.09 29 18.31 47 24.05-30.25-1-48.84-23.34-71.21-8.55-11.5-6.17-19.65 8-30.62 4.47 12.05 13.81 46.25 12.93 17.59-8-28.6 28.06-48.9 17.49-7.51 16.11-12-.19-33.6 16.9-46.26 11 12.16-1.95 25.31 2.92 39.32 11.42-29.8 33.12 27 1.95 27.09-13.33 3.87-15.51 7.59-11.73 20.42-.29-8.22 5.18-11.28 12.75-14.77 2.28 8.26 1.33 14.22.17 23.45 6.34-6.72 6.9-22.91 16.85-18.6 2.3 22.32-46.59 97.77-7.2 50.65 11.56 34.47-11.58-32.82 14.41-8-7.91-14.15-6.88-11.86.94-27.44 1-20 .4-40.09.4-60.22 61.78 20.31-14.13 79.75 34.6 105.76-32.76-47.42 43.46-86.1-28.31-124.65-26.51-29.79-18.08-23.62 14.28-10.5 22.63 7.3 22.87 6.79 24.12 27.18.57 9.31 3.86 16.84 16.7 19.27-19.05-26.25-6.92-34.3 18.2-23-11.26-14.73-29.46-25.24-47.3-33.9-5.92-5-25-5.83-20.26-14.24 148-1.94 35.41 90.78 36.6 148.13 12.58-34.61 32.62-53.14 24.55-3 25.27-22.41-21.74-79.53 29.11-40.84 5-3.16-17.57-18.4-11.7-24.66 18.05-15.16 34.93-2.16 34 17 21-30.08-34-36.39-25.77-56.73 50.36 31.85-9.11-13.16-5.67-35.95-5.74-5.37-34.14-14.83-15-20.13 44.2-9.17 51.79 42.72 65.16 62.63 1-16.2-6.19-20.05 16.73-18.39-47.17-29.8-3.65-20.58 26.57-29.92l-.24-4.33c-35.11 9.08-65 5.78-84.35-24.76 27.26-7.44 46.16 16.79 73 12.44 3.27-5.8-20.19-5.79-27.56-9.19-3.77-2.9 7.64-9 8.47-9.44 35.26-10.95 85.43-27.17 7.48-8.04zm-474.9-440.42l-.65 9.66a42 42 0 0 1-10.7 1.43q-13.09 0-20-8a28.55 28.55 0 0 1-6.86-19.33 31.1 31.1 0 0 1 7.32-20.47q7.28-8.73 20-8.73a32.53 32.53 0 0 1 8.83 1.17l-1.34 9.7a25.89 25.89 0 0 0-8.63-1.59q-7.75 0-11.54 5.39a22.33 22.33 0 0 0-3.83 13.06 21.74 21.74 0 0 0 4.49 13.69q4.5 5.79 12.6 5.79a33.51 33.51 0 0 0 10.31-1.77zm41.62-10.91q0 10.57-5.92 16.54a19 19 0 0 1-14 6 17.93 17.93 0 0 1-13.11-5.43q-5.46-5.44-5.46-15.31 0-10.62 6-16.63a19.07 19.07 0 0 1 14-6 17.72 17.72 0 0 1 13 5.48q5.48 5.44 5.49 15.35zm-10 1.26a18.91 18.91 0 0 0-2.6-10.23c-1.74-2.76-4-4.14-6.77-4.14a7.63 7.63 0 0 0-6.59 3.87 17.23 17.23 0 0 0-2.54 9.66 18.87 18.87 0 0 0 2.6 10.22c1.73 2.76 4 4.14 6.76 4.14a7.62 7.62 0 0 0 6.59-3.87 17.14 17.14 0 0 0 2.58-9.65z"/><path d="M303.82 158.62l-8.94.34a14.54 14.54 0 0 1-.61-3.61h-.61a16.89 16.89 0 0 1-11.66 4.53q-6.32 0-9.5-3.63-3.18-3.63-3.19-14.51l.06-3.65.05-4.11q0-4.66-.72-14.87l10.66-.42q-.61 8.06-.61 15.29 0 10.28 1.39 13.85a5.36 5.36 0 0 0 5.49 3.57 12.81 12.81 0 0 0 7.72-2.35q0-22.08-.46-30l10.31-.38q-.37 7.94-.38 20.58a190.65 190.65 0 0 0 1 19.37zm41.12.05h-10.16q.84-10.63.84-21.5 0-6.6-1.78-8.95a6.33 6.33 0 0 0-5.4-2.35 12.63 12.63 0 0 0-8.26 3.28q.19 16.36.19 29.52h-10.28q.69-13.15.69-20.66a91.76 91.76 0 0 0-1.87-18.94l9.78-1.18.65 4.45h.66a17 17 0 0 1 12-5q5.88 0 9.42 3 3.54 3 3.53 11.24l-.09 3.25-.1 4.18q-.01 5.76.18 19.66zm32.91-11.47q0 12.6-17 12.6a35.84 35.84 0 0 1-10.82-1.47l1.3-8.27a25.75 25.75 0 0 0 9.52 1.89q4.59 0 6.36-.84a2.89 2.89 0 0 0 1.78-2.82q0-3.06-6.42-5.83a30.17 30.17 0 0 1-8.18-4.79 10.55 10.55 0 0 1-3.51-8 11.52 11.52 0 0 1 3.78-9q3.78-3.39 11-3.4a34.78 34.78 0 0 1 10.63 1.3l-1.3 8.32a23.51 23.51 0 0 0-9.33-1.85q-6.1 0-6.11 3.44a3.49 3.49 0 0 0 1.3 2.84 23.33 23.33 0 0 0 5.31 2.71 26.66 26.66 0 0 1 8.06 4.57 11.25 11.25 0 0 1 3.63 8.6zm38.48-12.76l-.23 5.58-24.61.46a12.78 12.78 0 0 0 3.71 7.9 11.3 11.3 0 0 0 8.33 3.15 43.5 43.5 0 0 0 12.19-1.89l-.77 8.14a35.47 35.47 0 0 1-13.07 2.1q-9.86 0-15.11-6.08a21.7 21.7 0 0 1-5.25-14.66 25 25 0 0 1 5-15.52q5-6.57 13.85-6.57 8.1 0 12 4.83 3.9 4.83 3.96 12.56zm-8.94-.38q0-9.66-7.49-9.66-7.15 0-8.49 10zm25.68 24.61h-10.44q.58-14.41.58-31.2A276.56 276.56 0 0 0 422 99.63l11.07-.63q-.58 11.89-.58 28.52 0 16.83.58 31.15zm18.03 0h-10.27q.53-8.7.53-19.95a129 129 0 0 0-1.3-19.57l11-1.22q-.51 8.16-.5 20.79.01 10.8.54 19.95zm1.76-52.58a7.61 7.61 0 0 1-1.77 5 6.09 6.09 0 0 1-4.95 2.14 5.09 5.09 0 0 1-4.19-1.85 6.83 6.83 0 0 1-1.51-4.45 7.45 7.45 0 0 1 1.78-5 6.18 6.18 0 0 1 5-2.1 5.07 5.07 0 0 1 4.18 1.82 6.8 6.8 0 0 1 1.46 4.44zm39.86 52.58h-10.16q.84-10.63.84-21.5c0-4.4-.6-7.38-1.78-8.95a6.35 6.35 0 0 0-5.41-2.35 12.62 12.62 0 0 0-8.25 3.28q.18 16.36.19 29.52h-10.28q.69-13.15.69-20.66a92.45 92.45 0 0 0-1.87-18.94l9.78-1.18.65 4.45h.61a17 17 0 0 1 12-5q5.88 0 9.42 3 3.54 3 3.53 11.24l-.1 3.25c-.1 1.36-.09 2.75-.09 4.18q.04 5.76.23 19.66zM537.77 113l-.84 7.81c-4 0-6.46.63-7.45 1.89v.55a11.83 11.83 0 0 1 2.26 7 14.38 14.38 0 0 1-4 10.25q-4 4.23-12 4.24a25.52 25.52 0 0 1-6.39-.67 3 3 0 0 0-2 2.64 3.62 3.62 0 0 0 2.43 3.59q2.42 1 11.29 1 15.32 0 15.32 11.46a15.11 15.11 0 0 1-6.38 12.81 25.29 25.29 0 0 1-15.51 4.75q-17.89 0-17.89-12.35a10.47 10.47 0 0 1 2-6.49 8 8 0 0 1 4.64-3.25v-.63q-3.21-2.22-3.21-6.8 0-4.58 4.4-7.73v-.59a11.3 11.3 0 0 1-6.19-10.62 13.84 13.84 0 0 1 4.26-10.33q4.26-4.16 13.16-4.16a17.48 17.48 0 0 1 9.86 2.52h.47q1.11-7.94 7.42-7.94a9.39 9.39 0 0 1 4.35 1.05zm-10.89 53a4.93 4.93 0 0 0-2.16-4.49q-2.15-1.4-7.43-1.39-4.27 0-8.63-.42a7.25 7.25 0 0 0-3.37 6.51q0 8.07 9.79 8.06 5.46 0 8.63-2.26a7 7 0 0 0 3.17-6.08zm-4.5-34.56a7.38 7.38 0 0 0-12.33-5.81 8.35 8.35 0 0 0 .06 11.27 7.59 7.59 0 0 0 5.16 1.93 7.29 7.29 0 0 0 4.94-1.87 6.89 6.89 0 0 0 2.17-5.59zm32.86 1.82l-.46 7.56-16.36.63.35-7.56zM593.15 104l-.27 9q-7.65-.63-14.41-.63-.08 7.94-.07 17.68 0 15.12.42 28.6h-10.7q.5-13.36.5-28.6 0-9.57-.16-17.68-5.38 0-14.79.67L554 104zm38.06 54.67H621q.84-10.63.84-20.66 0-7.48-1.71-9.81-1.71-2.33-5.66-2.33a13.35 13.35 0 0 0-8.18 3.07q0 17.84.38 29.73h-10.12q.42-13 .42-31.2a270 270 0 0 0-1.18-27.84L606.6 99q-.57 13.53-.57 23.52h.49a15.83 15.83 0 0 1 11.54-5.08q6.16 0 9.65 3.06 3.49 3.06 3.5 10.8l-.1 3.25-.09 3.25q-.02 6.97.19 20.87zm40.12-24.23l-.22 5.58-24.61.46a12.77 12.77 0 0 0 3.7 7.9 11.31 11.31 0 0 0 8.33 3.15 43.44 43.44 0 0 0 12.19-1.89l-.76 8.14a35.51 35.51 0 0 1-13.07 2.1q-9.85 0-15.11-6.08a21.66 21.66 0 0 1-5.26-14.66 24.94 24.94 0 0 1 5-15.52q5-6.57 13.85-6.57 8.1 0 12 4.83 3.9 4.83 3.96 12.56zm-8.94-.38q0-9.66-7.49-9.66-7.14 0-8.48 10zm39.48-15.29l-2.22 9.83a14 14 0 0 0-5.73-1.26q-5.62 0-7.41 5.54 0 16.76.23 25.79h-10.17q.64-12.64.65-20.66a90.69 90.69 0 0 0-1.91-18.94l9.74-1.18.65 5.42h.61q3.53-5.93 9.37-5.92a16.9 16.9 0 0 1 6.19 1.38zm34.47 39.85l-9 .34a9.8 9.8 0 0 1-.61-3.19h-.5q-4.2 3.94-11.35 3.95a11.25 11.25 0 0 1-7.93-2.92 10.07 10.07 0 0 1-3.15-7.75 13 13 0 0 1 4.91-10.46q4.9-4.07 17.22-4.32c.05-.5.07-1 .07-1.43 0-3-.66-5-2-6s-3.75-1.45-7.29-1.45a38.43 38.43 0 0 0-11.28 1.68l.84-7.73q5.21-2 14.68-2 6.91 0 10.68 3.19 3.77 3.19 3.76 11.17 0 1.77-.13 6.42-.13 4.65-.14 6.22a67.58 67.58 0 0 0 1.22 14.28zm-10.21-8.73q-.23-5.67-.22-9.78-13 0-13 7.26c0 3.33 1.92 5 5.74 5a11.47 11.47 0 0 0 7.48-2.48zM779 137a27.6 27.6 0 0 1-4.73 16 14.92 14.92 0 0 1-13 6.88c-4.07 0-6.88-.95-8.41-2.85h-.45q0 10.29.26 20.83H742.3q.69-12.06.69-27.8 0-20.33-2-31l9.78-1.18.58 3.61h.65q4.08-4.16 11.12-4.15a13.64 13.64 0 0 1 11.61 5.81A22.67 22.67 0 0 1 779 137zm-10.16 1.09a16.69 16.69 0 0 0-2.41-9.11 7.47 7.47 0 0 0-6.65-3.82c-3.51 0-6.09 1.13-7.72 3.4q.59 11.81.58 21.62a9.2 9.2 0 0 0 6.23 2.06 8.15 8.15 0 0 0 7.52-4.13 19.38 19.38 0 0 0 2.43-10.02zm48.24-19.32q0 2.73-5.46 17.3-6.23 16.76-7.68 22.85-2.49 10.5-6.69 14.49-4.2 3.99-12.15 3.86l-.77-8.11a10.73 10.73 0 0 0 7.8-3 10.49 10.49 0 0 0 3.06-7.91q0-5-6.88-21.86-6.88-16.86-6.88-17.66h11.81q0 1.47 3.48 14.24 3.48 12.77 3.47 15.62h.54q0-2.43 3.15-14.38 3.15-11.95 3.12-15.44z"/></svg>