<?xml version="1.0" encoding="utf-8"?><svg xmlns="http://www.w3.org/2000/svg" viewBox="0 0 2000 515"><g fill="#0284c7"><circle cx="1500.63" cy="364.97" r="17.73"/><circle cx="844.78" cy="364.97" r="17.73"/></g><path d="M110.51 261.53c-9.56-12.38-16.86 1.52-25.9 8.16 11.32 10.81 24.66 7.44 25.9-8.16zm322.54 33.32c-4.2-14.82-16.29-4.36-27.26-1.27 6.45 13.96 20.21 15.42 27.26 1.27zm24.42-112.33c7.43 12.4 23.54 3.06 22.28-10.55-4.15-14.51-23.02-1.8-22.28 10.55zM310.56 74.94c21.49-9.82 3.57 5.08 21.7 16.61 18.1-16-25.17-45.13-21.7-16.61zM92.85 174.6c26.41-20.21-36.22-36.21-9-3.06 1.15 1.91 6.96 3.87 9 3.06zm-14.77 38.34c17-10.42 4.76-20.14-8.4-25.57-9.8 3.48-.75 21.57 8.4 25.57zm22.35-61.84c15.35-9.59 2.38-20-.71-33.95-11.02 13.32-10.23 23.91.71 33.95zM459 134.11c-13.6 14.92-14.11 18.71-3.35 29.34 12.07-9.22 12.9-17.99 3.35-29.34zm-6.53 134.68c-15.85 19.76 34.64 26.24 13 3.77-3.1-3.74-7.47-9-13-3.77zM140 278.44c-20.81-15-27.63 32.88-4 12.31 4-2.91 9.55-7.06 4-12.31zm332.33-59.9c9.87 17.11 17.93-6.36 19-15.07-14.79.06-21.66 6.06-19 15.07zM162.21 93.78c-17 7.43-20.09 16.15-8.84 26.13 11.71-7.34 10.03-16.49 8.84-26.13zm-24.06 31.76c7.07-8.78-3.2-20.27-19.51-19.85 5.82 7.78 6.09 22.5 19.51 19.85zm1.11-22.87c6.92-8.85 3.47-20-8-25.83-5.74 13.57-3.64 20.35 8 25.83zM384.37 58c-16.58 9-17 9.92-10.73 23.27 11.27-1.69 15.78-11.48 10.73-23.27zm24.03 70.9c5.64-13 2.07-20.35-11.58-25.72-.56 9.74-2.65 19.59 11.58 25.72zM184.9 75.53c5.9-14.26 3.29-18.84-14.38-26 1.48 10.04 1.56 19.75 14.38 26zm36.63-13.73c10.9-4.88 1.27-17.74 2.31-28.42-11.54 9.26-14.08 24.26-2.31 28.42zM338 40.32c-8.18 8.89-9.87 17.67-.8 27.5 9.8-8.07 9.89-14.91.8-27.5zM417.65 131c10.08 12.66 21.94-3.67 17.59-14-10.71 1.9-18.52 4.94-17.59 14zM228.16 87.45c7.78-4.51 15.29-24.19 4.1-26.1-2.85 8.95-15.91 18.37-4.1 26.1zM420.77 112c12.44-5.28 6.18-14.92 7.42-25.33-13.95 5.91-15.99 17.25-7.42 25.33zm-167.93 14.79c20.7 3.15-6.3-11.63 2.58-27.33-13.19 12.54-13.49 19.89-2.58 27.33zM87.06 222c-11.67-7.56-13.72-7.36-26.51 2.35 10.35 7.74 14.82 7.45 26.51-2.35zM297 45.07c1.93-5.5 2.05-11.42 2.88-17.18-12.01-5.3-22.96 31.47-2.88 17.18zm-105.6 56.64c2.32-13.77 1.81-14.34-15.07-17.5-.86 10.6 3.41 15.79 15.07 17.5zm215.4-6.18c7.74-8.58 6.62-13.11-6.74-23.16 1.35 7.83-6.96 17.52 6.74 23.16zm-22.48-3.36c-16.49-.69-19.42 2.39-15.48 15.13 12.07-.05 13.88-7.05 15.48-15.13zM97.12 221.06c7.34-7.86 5.69-15.44 1.19-23.6-10.31 9.32-10.76 15.32-1.19 23.6zm13.3-52.15c8.39-2.82 16.07-16.43 7.48-20.42-6.35 6.58-14.8 11.7-7.48 20.42zm92.34-89.79l5.74-22.9c-17.94 9.78-19.29 14.58-5.74 22.9zm55.48-14.03c12.62-5.61.07-15.87-11.57-15.83-1.08 8.74 3.04 13.62 11.57 15.83zm200.08 144.66c-1.64 7.83-5.84 15.36 3.53 21.14 7.77-5.38 4.91-19.54-3.53-21.14zM158.2 79.62c-.73-5.41 4.38-16.17-4.55-16.94-5.38 6.61-7.33 31.45 4.55 16.94zm230.08 77.18l10-16.75c-17.96 1.33-20.85 6.77-10 16.75zm-228.04-27.04l11.83 20.46c9.17-13.03 6.01-17.86-11.83-20.46zm147.58-98.02l12.25 21.22c7.7-11.3 5.5-14.85-12.25-21.22zm76.52 106.73l3.13-23.37c-14.97 9.55-15.72 14.72-3.13 23.37zm60.2 45.35c9.27-11.67 5.85-18.48-9.34-22.23l9.34 22.23zM278.48 65.08c-2.54-6 3.75-22-6.22-21.08-4.01 6.72-7.96 22.5 6.22 21.08zm71-2.2l8.22 20.76c8.84-8.64 6.03-14.64-8.22-20.76zM241.87 27.25c-1.18 5.53-14 15.32-5.61 18.08 10.28-2.79 11.83-5.83 5.61-18.08zm12.99-4.38l7.38 20.38c9.31-9.73 7.23-14.66-7.38-20.38zm136.71 262.96s-5.18-22.86-38.45-7.54c-46.54 21.41-53.85 117.87-2.5 112.84 78.77-32.57 65.85.73 117.19-16.79 74.31-17.32 26.48-2.64-7 7.32-.79.41-11.66 5.92-8.08 8.55 7 3.08 29.4 3.07 26.28 8.32-25.62 3.93-43.64-18-69.63-11.27 18.44 27.65 46.94 30.63 80.42 22.42l.22 3.91c-28.81 8.46-70.3.11-25.33 27.09-21.85-1.51-15 2-15.94 16.64-12.76-18-20-65-62.13-56.69-18.28 4.8 8.8 13.37 14.27 18.22-3.28 20.62 53.42 61.36 5.41 32.54 0 0-31.36-37.29-65.39-38.11-12.55-.3-17.39 2-17.39 2-4.53 7.62 13.66 8.4 19.31 12.89 17 7.84 34.36 17.35 45.1 30.68-23.95-10.21-35.52-2.92-17.35 20.83-12.24-2.19-15.38-9-15.93-17.43-1.19-18.46-1.42-18-23-24.6-30.85-11.91-42.9-23.4-15.22 1.24 5.09 4.53 8.11 14.1 8.11 14.1s-18.54-5.19-27.83-14.37c13.33 13.11 14.67 42.29 14.67 47.22l-11.65-19.61c-4.65-12.69-7.21-20-17.72-31-16.29 11.46-.75 31-16.11 41.87 10.07-37.47-24.32-19.09-16.68 6.79.85 25.94-14-18-14-18-3.89-28.87 22.76-15.16 28.2-41.7-18 9-53.18 7.73-56.57 28.24-1.76 12.95-14.11 37.24-8.92 7.8 1.86-12.75-6.34-11.16-17.44-8.82-10.05-4.83 39.54-38.75 58.69-34.72-81.5-17.17-71 22.95-61.8 50.4 0 0-15.67-27.12-26.27-18.1-8 6.79-9 7.24-9 7.24s-1.74-4.3 1.28-13.27c3.12-9.29 30.93-27.06 12.14-31.09 6.74-2.6 14.86-5 22-8.71 5.17-2.67 3.53-6-1.88-8.14-32.09-8.6-54.35 20.94-60.36 46-10.21-24.44-34.75 6.52 5.2-29.18-16.9-3.56-41-1.93-49.19-11 28.7 3.32 54.81 8.11 73.86-13.65 17.73-25.61-54.43 16.54-73.82-1.2 37.08-2.2 47.55-5.74 8.68-22-70.92-13.23 10.85-12.18 33.78 5.29 36-4.12 62.51 3.3 95.43 17.1 60.6 10.91 50.51-122.57-23.92-118.73-18.4.94-37.08 11.1-37.08 11.1s.09-3.64 3.27-11.33c1.48-3.59-2.45-7.67-15-6.54-29.28 6.72-24.16-30.76-46.82-14.55-4 .48-8.52-2.34-12.82-3.71-3.06-8.66 23-6.77 19.21-17.7 7.61 6.38 11.15-4.28 16.79-7.73 8.92 3.56-4 11.21-6.37 17.94 39.6 41.81 3-41-1.81-59.13 10.07 14.58 38.89 46 20.44 4.37l3.88-1.86c14.51 17.78 17.43-.86.48-8.59 28.55-.66-12.74-14.25-.9-21.93 9 4.09 11.5 11.17 15 18.35 2.71 4.55 13.27 6.92 5.23 14.17 10.54 4.8 3.9 8.08-4.66 10.3-4.58 7.56-8.88 15.24-13.63 23.55 16.75-.35 15.8 3.2 3.29 11.11 6.05 28.71 61.05 36.84 29.58-5.12-15.75 11.17-19.66-15.78-1.57-7v-13c13.92.65-7.1 27.42 16.91 12.58 6.15 7.31-15.05 14.22.31 21.48 7.69-12.49 20-21.69 10.8-1.48-9.12 28.63 47.63 23.93 60.58 47.06 1.2-47.31-56.07-57.68-80.61-91.56-9.28-14.92-16-34.71-30.89-45.75-19.87-13.79-.76-3.92 6.88-14.59 6.91 5-4.75 19.76 14.81 9.77-12.15 15-6.46 20 9 33.21l19.23-44.12c13.59 10.77-10.15 13.48-4.46 19.2 32.73-2.36 15.6 12.65-.59 6.87-5.5 13.54-5.14 17.73 11.63 9.32 3.32 11.28-3.25 17.47-17.53 15.06 5.68 11.37 8.85 24.56 17.69 6.4 8.67 1.36.66 9 .35 14.88 31.76 20.31 33 5.11 35.84-20.82-13.91-2.37-17.07-6.12-16.28-20 36.88 22.24-18.45-19.56-15.89-34.31-.39-3.83-6.74-7.25-10.26-10.75 15.36-13.92 11.57 13.27 25.18-1.57 3 19.69-18.23 16 17.72 37.82l-19.33-65.68c8.16 4.62 12.17 15.38 26.36 6.24 1.26 4.84-4.24 10.62-8.48 12.94-13.39 1.8 4.93 53.23 13.27 25.32-4.56 74.13-5.46 81.67 36.08 147.85 41.9-57.85-59.23-56.94-16.18-66.69 1-20.8-4.29-9.4-14.64-19.46 22.25-17.92 19 34.14 36.31 30-10.35-29.48-27.82-59.75-12.62-90.49 1.53-5.24-10.41-18-1-19.14 21.18 40.1 1.11 17.75 2 46 18.19-16.6 20-43.89 8.21-64.39-17.55 10-6.21-4.56-4-14.52-9.95 2.47-17.5 10.33-22.42 5.18C275.19 55 272 85.89 291.41 64.17c-5.92 21.16-3.22 29.49 9.8 48.72C312 96 304.48 93.8 289.87 81.94c53-1 3.67 16.08 30 23.56-.12 1.27 0 2.39-.26 2.46-18.73 2.6-43.39 56.88-20.94 49.42-4.43 6.56-4.18 16.38-15.85 14.16 31 88.47 42.77 51.28 34.9-16.2-2.35-8.12 3.36-23.69-12.37-18.62 8.3-9.64-4.94-9.64 5.19-17.61 12.48 3.68 10.58 9.27 9.42 19.52 10.11 1.64 9.7-16.28 14.79-22.32 4.67-10.88-16.12-10.16-13.52-21.38 14.1 7.86 16.18-8.32 26-6.77 1.09 1-21.61 63.63-15.27 62.25 20.93-13.44 23.38-14.14 9-32.85 24.6 2.34 15.4 14.91 15-21.73 15.81 18.8 6.28 23.79.21 44.38-1.59 8.95-24.29 18-20.08 26.44 18.6-9.36 10.31 19.22-6.79 13.15l2.14 16.11c20.56-12 5.89 8.62-1.16 16.35 25.79.66 48.66-12.09 50.47-26.21-12.35-.46-18.92-5.62-19.05-18.26 31.65 14.38 14.53-11.44-7.28-10.1 5-14.54 32.31 7.5 8.62-22 13.64.47 19.63 30.18 27 41.77 16-8.71 17.71-12.93 11-28.94 14.28 8.19 9.26 1.18 10.09-7.92 39.71 6.12 1.37 7.11-.86 26.46-12.18 19.35-23.62 41-48.87 51.3-23.37 4.31-68.91 70.72-40.52 57 19.71-12.38 64.85-16.62 51.31-40.19 31.51 22.65-5.94-33.67 21.23-5.64 1.75-1.14-4.37-35.32 4.1-30.55-7.38 31.54 27.51 17-4.4 33-21.49 24.9 2.68 29.42 27.51 14.27 14.76-8.75-2-12.15-6.74-23.06 29.79 8.09 1-25.61-12.13-31.24h10.83c-11.71-12.39 7.73-18.63 15.8-34.83 8.95 7.64-21.25 22.5.24 22.16-5.31 5.37-16.58 15.34-6.32 19.3 4-5.76 4.13-15.8 12.55-7.61-25.14 29.45 8.27 20.59 18.93-2.63-2 16.35-39.83 88.08-6.16 63.12 36.61-42.51 66.47-.49 30.37-11.2-8.51-6.47-13.34-2.95-18.91 4.69 28.6 2.68 17.75 23.91-1.37 6.21-9.83 13-17.72 22.52-40 17.84 0 0-17.54-3.37-18.81 1.45-4.42 16.68-7.34 15.38-7.34 15.38z" fill="#075985"/><path d="M670.46 352.75c0 13.95.24 24.85 1.21 36.82l-.24.13a261.75 261.75 0 0 0-14.64-29.11l-26.13-45.33h-11.49v89.6h9.92v-38.29c0-14.89-.25-25.66-.85-37l.36-.13a293.51 293.51 0 0 0 15.25 29.91l25.88 45.47h10.65v-89.6h-9.92zm50.33 1.32c-11.25-4.78-16.21-8.9-16.21-17.28 0-6.11 4.23-13.42 15.36-13.42a30.28 30.28 0 0 1 15.48 4.25l2.91-9.44c-3.63-2.26-9.68-4.39-18-4.39-15.85 0-26.37 10.37-26.37 24.33 0 12.63 8.23 20.21 21.53 25.39 11 4.66 15.37 9.44 15.37 17.82 0 9-6.29 15.28-17.06 15.28a34.77 34.77 0 0 1-18.87-5.85l-2.66 9.71c4.35 3.19 12.94 5.71 20.8 5.71 19.24 0 28.55-12 28.55-25.78-.03-13.16-7.04-20.48-20.83-26.33zm67.38 2.8v-.27c8.59-3.46 13.79-11 13.79-19.67 0-7.05-2.54-12.37-6.78-15.82-5.08-4.52-11.85-6.52-22.37-6.52a93.41 93.41 0 0 0-19.24 1.86v88.14a112.47 112.47 0 0 0 16.33 1.06c13.31 0 22.5-2.66 28.19-8.37a25.36 25.36 0 0 0 6.91-17.95 22.56 22.56 0 0 0-16.83-22.46zM764.1 324.3a41 41 0 0 1 9.31-.8c10.65 0 17.9 4.12 17.9 14.62 0 8.64-6.53 15-17.66 15h-9.55zm8.83 72.31a51.1 51.1 0 0 1-8.83-.53v-34.16h8.71c11.49 0 21 5.05 21 17.28.04 13.03-10 17.41-20.88 17.41zm133.67-82.02a111.24 111.24 0 0 0-20.2 1.73v88.54h10.52V369a32.87 32.87 0 0 0 8.47.8c10.28 0 19.36-3.32 24.92-9.84 4.11-4.65 6.29-11 6.29-19.14s-2.66-14.49-7.14-18.74c-4.83-4.83-12.46-7.49-22.86-7.49zm-1 45.87a32 32 0 0 1-8.71-.94V324.7a40 40 0 0 1 9.92-.93c11.62 0 19.24 5.71 19.24 17.54.03 12.37-7.72 19.15-20.42 19.15zm64.15-21.41c-16.21 0-29 12.63-29 34.17 0 20.34 12.22 33.1 28.06 33.1 14.16 0 29.16-10.37 29.16-34.17-.03-19.67-11.4-33.1-28.22-33.1zm-.48 58.49c-10.41 0-17.79-10.63-17.79-24.72 0-12.23 5.45-25 18-25s17.54 13.82 17.54 24.72c.03 14.46-7.59 25-17.75 25zm49.36-44.4h-.49l-.36-12.62h-9.32c.37 6 .49 12.49.49 20.07v44.27h10.52v-34.3a34.89 34.89 0 0 1 .49-5.45c1.45-8.78 6.77-15 14.27-15a14.44 14.44 0 0 1 3.63.4v-11a10.72 10.72 0 0 0-3-.4c-7.16-.06-13.57 5.39-16.23 14.03zm43.18-31.14l-10.4 3v15.43h-9.07v8.9h9.07v35.1c0 7.57 1.09 13.29 4.11 16.75 2.54 3.19 6.53 4.91 11.49 4.91a24 24 0 0 0 9.44-1.59l-.48-8.77a22.07 22.07 0 0 1-6.17.79c-5.93 0-8-4.52-8-12.49v-34.7h15.25v-8.9h-15.25zm81.42-8.21c-21.78 0-37.87 18.62-37.87 47.06 0 27.12 15.12 45.47 36.66 45.47 20.8 0 37.86-16.35 37.86-47.19 0-26.59-14.39-45.34-36.65-45.34zm-.61 83.09c-16.57 0-26-17.15-26-36.29 0-19.68 8.71-37.36 26.13-37.36s26 18.61 26 36.43c0 20.34-9.43 37.22-26.13 37.22zm57.83-43.74h-.45l-.37-12.62h-9.31c.36 6 .48 12.49.48 20.07v44.27h10.53v-34.3a36.23 36.23 0 0 1 .48-5.45c1.45-8.78 6.78-15 14.28-15a14.3 14.3 0 0 1 3.62.4v-11a10.67 10.67 0 0 0-3-.4c-7.19-.06-13.6 5.39-16.26 14.03zm67.99 12.23c0-12.89-4.36-26.32-22.26-26.32a33.9 33.9 0 0 0-19.24 5.72l2.42 7.71a27.26 27.26 0 0 1 15.25-4.79c12 0 13.3 9.57 13.3 14.89v1.33c-22.62-.13-35.2 8.38-35.2 23.93 0 9.31 6 18.48 17.9 18.48a21.25 21.25 0 0 0 17.91-9.57h.36l.85 8.11h9.68a98.91 98.91 0 0 1-1-15.42zm-10.28 17.82a13.46 13.46 0 0 1-.61 3.72c-1.69 5.45-6.53 10.77-14.15 10.77-5.45 0-10-3.59-10-11.17 0-12.5 13.18-14.76 24.8-14.49zm54.19-44.14a21.32 21.32 0 0 0-19.35 12.1h-.25l-.6-10.63h-9.44c.37 5.31.49 10.76.49 17.41v46.93h10.64v-38.69a18.48 18.48 0 0 1 .73-5.45c1.81-6.51 7.26-12 14.27-12 10 0 13.55 8.64 13.55 19v37.09H1333v-38.37c0-22.07-12.54-27.39-20.65-27.39zm76.22 11.17h-.25c-2.54-5.32-8.1-11.17-18.26-11.17-13.43 0-26.37 12.37-26.37 34.17 0 17.81 10.4 31.37 24.92 31.37a20.54 20.54 0 0 0 18.63-10.77h.24V401c0 16.22-8 22.47-18.87 22.47a30.89 30.89 0 0 1-17.18-5.05l-2.66 8.9c4.71 3.46 12.46 5.32 19.47 5.32 7.38 0 15.61-1.86 21.29-7.71 5.69-5.58 8.35-14.62 8.35-29.38V358.2c0-7.85.24-13 .49-17.68h-9.32zm-1.21 27.25a22.47 22.47 0 0 1-.85 6.25c-2.3 7.44-8.23 12-14.76 12-11.49 0-17.3-10.5-17.3-23.13 0-14.89 7.26-24.32 17.42-24.32 7.74 0 13 5.58 14.88 12.36a18 18 0 0 1 .61 5.32zm48.99-38.42c-17.06 0-27.46 15.29-27.46 34.7s10.77 32.43 28.79 32.43c9.32 0 15.73-2.12 19.48-4l-1.82-8.38c-4 1.86-8.59 3.33-16.21 3.33-10.64 0-19.84-6.52-20.08-22.34h41.13a48.2 48.2 0 0 0 .37-5.45c0-11.81-5.09-30.29-24.2-30.29zm13.91 27.39h-31.09c.85-8.11 5.57-19 16.33-19 11.98-.01 14.88 11.56 14.76 19zm113.48-51.85a137.83 137.83 0 0 0-22.38 1.86v88.14a155.65 155.65 0 0 0 19.11 1.06c15.85 0 28.43-4.52 36-12.89s11.73-20.21 11.73-34.83-4.23-24.86-11.49-32.17-17.85-11.17-32.97-11.17zm-1.21 81.76a60.67 60.67 0 0 1-10.65-.67V325a55 55 0 0 1 12.34-1.19c22.26 0 33.15 13.42 33 34.56.03 24.15-12.22 37.98-34.69 37.98zm97.74-30.98c0-12.89-4.35-26.32-22.26-26.32a33.87 33.87 0 0 0-19.23 5.72l2.42 7.71a27.22 27.22 0 0 1 15.24-4.79c12 0 13.31 9.57 13.31 14.89v1.33c-22.62-.13-35.2 8.38-35.2 23.93 0 9.31 6 18.48 17.9 18.48a21.22 21.22 0 0 0 17.9-9.57h.37l.84 8.11h9.68a98.91 98.91 0 0 1-1-15.42zM1650 383.19a13.44 13.44 0 0 1-.6 3.72c-1.7 5.45-6.54 10.77-14.16 10.77-5.44 0-10-3.59-10-11.17 0-12.5 13.19-14.76 24.8-14.49zm48.5-4.92c-1.45 4.65-2.66 9.57-3.75 13.43h-.24c-1-3.86-2.42-8.91-3.75-13.17l-12.82-38h-11.62L1688 399.8a11.21 11.21 0 0 1 .72 3.06 9 9 0 0 1-.84 2.79 35.3 35.3 0 0 1-8.95 13 27.52 27.52 0 0 1-9.32 5.72l2.66 9.83c2.66-.53 7.87-2.52 13.07-7.57 7.26-6.92 12.46-18.22 20.08-40.28l16-45.86h-11.25zm42.95-56.27l-10.41 3v15.43H1722v8.9h9v35.1c0 7.57 1.09 13.29 4.12 16.75 2.54 3.19 6.53 4.91 11.49 4.91a24 24 0 0 0 9.44-1.59l-.49-8.77a22 22 0 0 1-6.17.79c-5.93 0-8-4.52-8-12.49v-34.7h15.24v-8.9h-15.24zm48.87 17.05c-16.21 0-29 12.63-29 34.17 0 20.34 12.22 33.1 28.06 33.1 14.16 0 29.16-10.37 29.16-34.17-.03-19.67-11.4-33.1-28.22-33.1zm-.48 58.49c-10.41 0-17.78-10.63-17.78-24.72 0-12.23 5.44-25 18-25s17.54 13.82 17.54 24.72c.02 14.46-7.6 25-17.76 25zm68.83-58.49a21.33 21.33 0 0 0-19.35 12.1h-.24l-.61-10.63H1829c.36 5.31.48 10.76.48 17.41v46.93h10.65v-38.69a18.5 18.5 0 0 1 .72-5.45c1.82-6.51 7.26-12 14.28-12 10 0 13.54 8.64 13.54 19v37.09h10.65v-38.37c.04-22.07-12.54-27.39-20.65-27.39zm76.7 26.32c0-12.89-4.35-26.32-22.26-26.32a33.87 33.87 0 0 0-19.23 5.72l2.42 7.71a27.22 27.22 0 0 1 15.24-4.79c12 0 13.31 9.57 13.31 14.89v1.33c-22.62-.13-35.21 8.38-35.21 23.93 0 9.31 6 18.48 17.91 18.48a21.22 21.22 0 0 0 17.9-9.57h.36l.85 8.11h9.68a98.91 98.91 0 0 1-1-15.42zm-10.28 17.82a13.1 13.1 0 0 1-.61 3.72c-1.69 5.45-6.53 10.77-14.15 10.77-5.44 0-10-3.59-10-11.17 0-12.5 13.19-14.76 24.8-14.49z" fill="#0284c7"/><path d="M641.39 187.84q-9.09-11.73-9.09-27.73 0-15.65 7.66-26.58 7.66-10.93 23.38-10.93a52.51 52.51 0 0 1 17.49 3.23l2.71-19.65a65.39 65.39 0 0 0-17.88-2.38q-25.7 0-40.45 17.69-14.75 17.69-14.74 41.6 0 23.06 13.89 39.17 13.89 16.11 40.45 16.12a84.78 84.78 0 0 0 21.67-2.89l1.32-19.57a68.22 68.22 0 0 1-20.9 3.66q-16.41 0-25.51-11.74zM735 219.4q16.26 0 28.25-12.08 11.99-12.08 12-33.51 0-20.09-11-31.18a36 36 0 0 0-26.43-11.1q-16.26 0-28.34 12.16-12.08 12.16-12.08 33.69 0 20 11.07 31A36.31 36.31 0 0 0 735 219.4zm-12.27-64.31q5.14-7.82 13.35-7.82 8.45 0 13.7 8.37 5.25 8.37 5.27 20.72 0 11.73-5.15 19.56-5.15 7.83-13.35 7.83-8.45 0-13.7-8.38-5.25-8.38-5.27-20.71.02-11.74 5.17-19.57zm134.36-19.99l-20.9.77q.93 16 .93 60.73a25.91 25.91 0 0 1-15.63 4.77q-8.29 0-11.11-7.23-2.82-7.23-2.83-28.07 0-14.64 1.24-31l-21.6.85q1.47 20.67 1.47 30.12l-.11 8.33-.12 7.4q0 22 6.47 29.39 6.47 7.39 19.23 7.36a34.15 34.15 0 0 0 23.69-9.19h1.24a29.61 29.61 0 0 0 1.24 7.32l18.11-.68a383.06 383.06 0 0 1-2.09-39.22q0-25.57.77-41.65zm38.01 80.98q0-26.62-.39-59.8 7.9-6.63 16.73-6.63 7.35 0 10.95 4.76 3.6 4.76 3.6 18.12 0 22-1.7 43.55h20.59q-.39-28.15-.39-39.64 0-4.33.19-8.46.19-4.13.2-6.59 0-16.59-7.16-22.76-7.16-6.17-19.09-6.17-13.77 0-24.38 10H893l-1.31-9-19.82 2.38a186 186 0 0 1 3.79 38.36q0 15.22-1.39 41.85zm112.32-40.66q-5.1-4.75-16.33-9.27-8.13-3.32-10.76-5.49a7.07 7.07 0 0 1-2.63-5.74q0-7 12.38-7a47.6 47.6 0 0 1 18.89 3.74l2.63-16.84q-7.82-2.64-21.52-2.64-14.62 0-22.29 6.89-7.67 6.89-7.66 18.2a21.34 21.34 0 0 0 7.12 16.25q5.18 4.77 16.56 9.7 13 5.61 13 11.82a5.85 5.85 0 0 1-3.6 5.7q-3.6 1.71-12.89 1.7a52.13 52.13 0 0 1-19.28-3.82l-2.63 16.75a72.38 72.38 0 0 0 21.91 3q34.36 0 34.37-25.52a22.83 22.83 0 0 0-7.27-17.43zm56.05-43.64q-18 0-28.06 13.32-10.06 13.32-10.11 31.43 0 17.35 10.65 29.69 10.65 12.34 30.61 12.33 15.8 0 26.48-4.25l1.55-16.51a87.87 87.87 0 0 1-24.7 3.83q-10.46 0-16.87-6.38a25.84 25.84 0 0 1-7.51-16l49.85-.94c.31-4.64.46-8.42.46-11.31q0-15.65-8-25.43-8-9.78-24.35-9.78zm-18.12 35.14q2.72-20.25 17.19-20.25 15.17 0 15.17 19.57zm66.42 49.16h21.13q-1.15-29-1.16-63.2 0-33.69 1.16-57.76l-22.37 1.36a560.83 560.83 0 0 1 2.4 56.4q0 34.02-1.16 63.2zm50.78-92.08q6.42 0 10-4.33a15.4 15.4 0 0 0 3.6-10.13 13.77 13.77 0 0 0-3-8.89 10.29 10.29 0 0 0-8.48-3.7q-6.51 0-10.1 4.26a15 15 0 0 0-3.6 10 13.78 13.78 0 0 0 3.06 9 10.31 10.31 0 0 0 8.52 3.79zm-10.76 92.08h20.83q-1.09-18.54-1.09-40.4 0-25.6 1-42.11l-22.3 2.47a261.5 261.5 0 0 1 2.64 39.64q.01 22.8-1.08 40.4zm58.52 0q0-26.62-.38-59.8 7.89-6.63 16.72-6.63 7.35 0 10.95 4.76 3.6 4.76 3.6 18.12 0 22-1.7 43.55h20.59q-.39-28.15-.39-39.64 0-4.33.19-8.46.19-4.13.2-6.59 0-16.59-7.16-22.76-7.16-6.17-19.08-6.17-13.78 0-24.39 10h-1.24l-1.31-9-19.82 2.38a186 186 0 0 1 3.79 38.36q0 15.22-1.39 41.85zm110.23-14.8q-18 0-22.87-2.08a7.36 7.36 0 0 1-4.92-7.27c0-2.22 1.37-4 4.11-5.36a51 51 0 0 0 12.92 1.36q16.18 0 24.35-8.59a29.07 29.07 0 0 0 8.17-20.76 24 24 0 0 0-4.57-14.29v-1.11q3-3.83 15.09-3.82l1.71-15.83a19.06 19.06 0 0 0-8.83-2q-12.77 0-15 16.07h-1.08q-7.66-5.1-20-5.1-18 0-26.67 8.42a28.08 28.08 0 0 0-8.63 20.93q0 14.63 12.54 21.52v1.19q-8.89 6.3-8.9 15.65-.01 9.35 6.5 13.78v1.28q-5.34 1.19-9.4 6.59a21.22 21.22 0 0 0-4.07 13.14q0 25 36.23 25 18.49 0 31.43-9.61 12.94-9.61 12.92-25.94.01-23.17-31.03-23.17zM1298.37 149a15.28 15.28 0 0 1 20.47.13q4.48 4 4.49 11.65c0 4.93-1.46 8.67-4.37 11.19a14.91 14.91 0 0 1-10 3.78 15.41 15.41 0 0 1-10.45-3.91q-4.49-3.91-4.49-11.48 0-7.57 4.35-11.36zm27.63 94q-6.42 4.6-17.49 4.6-19.83 0-19.82-16.33 0-8.78 6.81-13.19 8.82.86 17.5.85 10.68 0 15 2.81 4.32 2.81 4.37 9.1A14.25 14.25 0 0 1 1326 243zm67.08-78.38l-33.37 1.28-.69 15.31 33.13-1.28.93-15.31zm0-40.92q19-1.35 30-1.36.32 16.42.31 35.81 0 30.89-1 57.93H1444q-.85-27.3-.85-57.93 0-19.72.15-35.81 13.71 0 29.19 1.28l.54-18.29h-79.33zm160.23 92.38q-.39-28.15-.38-42.36l.19-6.59.19-6.59q0-15.66-7.08-21.87-7.08-6.21-19.55-6.21-13.15 0-23.37 10.3h-1q0-20.25 1.16-47.64l-21.9 1.36q2.39 22.46 2.4 56.4 0 36.84-.86 63.2h20.59q-.76-24.06-.77-60.22 8.13-6.21 16.57-6.21 8 0 11.45 4.72 3.45 4.72 3.49 19.86 0 20.34-1.71 41.85zm83.22-18.29a87.76 87.76 0 0 1-24.7 3.83q-10.44 0-16.87-6.38a25.89 25.89 0 0 1-7.51-16l49.85-.94c.31-4.64.47-8.42.47-11.31q0-15.65-8-25.43-8-9.78-24.38-9.79-18 0-28.06 13.32-10.06 13.32-10.1 31.43 0 17.35 10.64 29.69 10.64 12.34 30.62 12.33 15.78 0 26.47-4.25zm-32-51.12q15.18 0 15.17 19.57l-32.35.68q2.65-20.25 17.13-20.25zm47.02 69.41h20.59q-.47-18.29-.47-52.23 3.64-11.22 15-11.22a28.31 28.31 0 0 1 11.61 2.55l4.49-19.91a34 34 0 0 0-12.54-2.81q-11.85 0-19 12h-1.24q0-1.62-1.32-11l-19.67 2.41a183.36 183.36 0 0 1 3.87 38.36q-.01 16.25-1.32 41.85zm121.76-28.92q0-3.15.27-12.59.27-9.44.27-13 0-16.17-7.62-22.63-7.62-6.46-21.64-6.47-19.2 0-29.72 4l-1.71 15.66a77.83 77.83 0 0 1 22.84-3.41q10.76 0 14.79 2.94 4.03 2.94 4 12.12c0 .91 0 1.87-.15 2.89q-24.93.51-34.88 8.76a26.28 26.28 0 0 0-9.94 21.18q0 9.79 6.38 15.7 6.38 5.91 16.06 5.91 14.48 0 23-8h1a19.85 19.85 0 0 0 1.24 6.47l18.27-.68q-2.45-11.24-2.46-28.85zm-33.44 16.16q-11.61 0-11.61-10.12 0-14.72 26.4-14.71 0 8.32.46 19.81-6.12 5.03-15.25 5.02zM1791 255h21q-.54-21.36-.54-42.19h.93q4.65 5.78 17 5.78 16.65 0 26.24-14 9.59-14 9.6-32.41 0-16.24-8.67-28-8.67-11.76-23.53-11.78-14.25 0-22.53 8.42h-1.24l-1.16-7.31-19.81 2.38q4 21.6 4 62.78.14 31.87-1.29 56.33zm35.37-106.76q8.6 0 13.47 7.74 4.87 7.74 4.88 18.46 0 11.91-5 20.29-5 8.38-15.25 8.38-7.74 0-12.62-4.17 0-19.9-1.16-43.81 5.04-6.93 15.72-6.93zm92.7 68.35q2.94-12.33 15.56-46.27 11.07-29.52 11.07-35h-20.36q0 7.15-6.38 31.35-6.38 24.2-6.39 29.13h-1.08q0-5.77-7-31.64-7-25.87-7-28.84h-23.92q0 1.62 13.93 35.77 13.93 34.15 13.94 44.28 0 10-6.2 16-6.2 6-15.79 6l1.55 16.42q16.41 0 24.62-7.83 8.38-8.1 13.45-29.37z" fill="#0c4a6e"/></svg>