<svg xmlns="http://www.w3.org/2000/svg" viewBox="0 0 1000 1000"><g id="logotype"><circle id="dot2" cx="601" cy="860" r="8"/><circle id="dot1" cx="305" cy="860" r="8"/><g id="tree"><path d="M313.57,504.45c-10.55-13.66-18.6,1.67-28.59,9C297.48,525.39,312.2,521.67,313.57,504.45Z"/><path d="M669.62,541.23c-4.64-16.36-18-4.82-30.09-1.4C646.65,555.24,661.79,556.82,669.62,541.23Z"/><path d="M696.58,417.23c8.2,13.69,26,3.38,24.59-11.64C716.59,389.56,695.76,403.59,696.58,417.23Z"/><path d="M534.41,298.48c23.72-10.84,3.94,5.6,24,18.33C578.34,299.15,530.58,267,534.41,298.48Z"/><path d="M294.08,408.49c29.15-22.31-40-40-10-3.38C285.41,407.22,291.83,409.38,294.08,408.49Z"/><path d="M277.77,450.81c18.75-11.5,5.26-22.23-9.27-28.23C257.68,426.43,267.67,446.4,277.77,450.81Z"/><path d="M302.44,382.55c16.95-10.59,2.63-22.14-.77-37.48C289.49,359.77,290.37,371.46,302.44,382.55Z"/><path d="M698.29,363.79c-15,16.47-15.58,20.66-3.7,32.38C707.9,386,708.81,376.32,698.29,363.79Z"/><path d="M691.06,512.46c-17.5,21.82,38.23,29,14.32,4.17C702,512.5,697.17,506.69,691.06,512.46Z"/><path d="M346.18,523.12c-23-16.61-30.51,36.29-4.39,13.59C346.14,533.49,352.26,528.92,346.18,523.12Z"/><path d="M713,457c10.9,18.89,19.79-7,21-16.63C717.63,440.42,710,447,713,457Z"/><path d="M370.64,319.28c-18.75,8.19-22.17,17.82-9.76,28.84C373.81,340,372,329.92,370.64,319.28Z"/><path d="M344.09,354.33c7.8-9.69-3.54-22.37-21.54-21.91C329,341,329.28,357.26,344.09,354.33Z"/><path d="M345.31,329.09c7.64-9.77,3.83-22-8.85-28.51C330.14,315.55,332.46,323,345.31,329.09Z"/><path d="M615.88,279.76c-18.3,10-18.74,10.94-11.84,25.69C616.48,303.6,621.46,292.79,615.88,279.76Z"/><path d="M642.41,358c6.23-14.32,2.29-22.47-12.78-28.39C629,340.41,626.7,351.27,642.41,358Z"/><path d="M395.69,299.13c6.52-15.74,3.64-20.8-15.87-28.73C381.5,281.51,381.54,292.23,395.69,299.13Z"/><path d="M436.13,284c12-5.39,1.4-19.59,2.55-31.37C425.94,262.82,423.13,279.38,436.13,284Z"/><path d="M564.73,260.26c-9,9.82-10.9,19.51-.88,30.36C574.63,281.71,574.73,274.16,564.73,260.26Z"/><path d="M652.62,360.31c11.13,14,24.22-4,19.42-15.42C660.22,347,651.6,350.35,652.62,360.31Z"/><path d="M443.45,312.29c8.59-5,16.88-26.71,4.52-28.81C444.82,293.35,430.41,303.75,443.45,312.29Z"/><path d="M656.06,339.36c13.74-5.82,6.83-16.47,8.2-28C648.86,318,646.61,330.47,656.06,339.36Z"/><path d="M470.69,355.71c22.85,3.48-7-12.84,2.85-30.17C459,339.39,458.65,347.5,470.69,355.71Z"/><path d="M287.69,460.83c-12.89-8.35-15.15-8.13-29.27,2.59C269.85,472,274.78,471.63,287.69,460.83Z"/><path d="M519.4,265.51c2.12-6.08,2.26-12.62,3.17-19C509.36,240.68,497.28,281.28,519.4,265.51Z"/><path d="M402.87,328c2.56-15.19,2-15.82-16.64-19.32C385.29,320.4,390,326.15,402.87,328Z"/><path d="M640.64,321.21c8.55-9.47,7.31-14.47-7.44-25.57C634.7,304.29,625.52,315,640.64,321.21Z"/><path d="M615.83,317.5c-18.21-.76-21.44,2.63-17.09,16.7C612.06,334.14,614.06,326.42,615.83,317.5Z"/><path d="M298.8,459.77c8.09-8.68,6.27-17,1.31-26C288.68,444,288.23,450.63,298.8,459.77Z"/><path d="M313.47,402.2c9.27-3.1,17.74-18.13,8.26-22.54C314.72,386.93,305.4,392.58,313.47,402.2Z"/><path d="M415.41,303.09c2.2-8.81,3.95-15.78,6.34-25.28C401.94,288.66,400.44,293.91,415.41,303.09Z"/><path d="M476.66,287.6c13.92-6.19.07-17.52-12.78-17.47C462.69,279.71,467.24,285.16,476.66,287.6Z"/><path d="M697.52,447.29c-1.81,8.64-6.45,17,3.9,23.34C710,464.69,706.83,449.05,697.52,447.29Z"/><path d="M366.21,303.65c-.8-6,4.84-17.85-5-18.71C355.26,292.23,353.11,319.66,366.21,303.65Z"/><path d="M620.2,388.84l11-18.49C611.41,371.81,608.23,377.83,620.2,388.84Z"/><path d="M368.47,359l13.06,22.59C391.65,367.19,388.17,361.86,368.47,359Z"/><path d="M531.38,250.79l13.53,23.42C553.41,261.74,551,257.82,531.38,250.79Z"/><path d="M615.85,368.61l3.46-25.81C602.78,353.35,602,359.06,615.85,368.61Z"/><path d="M682.3,418.66c10.23-12.87,6.46-20.4-10.3-24.53Z"/><path d="M499,287.59c-2.8-6.67,4.15-24.33-6.87-23.27C487.7,271.74,483.34,289.16,499,287.59Z"/><path d="M577.37,285.16l9.08,22.92C596.2,298.52,593.09,291.89,577.37,285.16Z"/><path d="M458.59,245.83c-1.32,6.1-15.51,16.92-6.21,20C463.73,262.71,465.45,259.35,458.59,245.83Z"/><path d="M472.92,241l8.15,22.49C491.34,252.75,489.05,247.31,472.92,241Z"/><path d="M623.84,531.27s-5.73-25.23-42.45-8.33C530,546.59,522,653.06,578.63,647.52c87-36,72.69.8,129.36-18.55,82-19.12,29.24-2.91-7.75,8.09-.88.45-12.88,6.54-8.92,9.44,7.76,3.39,32.45,3.38,29,9.18C692,660,672.15,635.82,643.46,643.24c20.36,30.52,51.82,33.81,88.77,24.75l.25,4.32c-31.8,9.33-77.61.12-28,29.9-24.12-1.67-16.58,2.18-17.61,18.37-14.07-19.9-22.06-71.73-68.58-62.58-20.17,5.3,9.72,14.75,15.76,20.12-3.63,22.76,59,67.73,6,35.91,0,0-34.62-41.16-72.18-42.06-13.86-.34-19.2,2.16-19.2,2.16-5,8.4,15.08,9.27,21.31,14.23,18.79,8.65,37.94,19.14,49.79,33.86-26.44-11.27-39.2-3.22-19.16,23-13.51-2.43-17-10-17.58-19.25-1.31-20.37-1.56-19.87-25.38-27.15-34-13.15-47.35-25.83-16.79,1.37,5.61,5,8.94,15.57,8.94,15.57s-20.39-5.69-30.69-15.82c14.71,14.46,16.19,46.68,16.19,52.12l-12.86-21.65c-5.13-14-8-22-19.56-34.17-18,12.65-.83,34.23-17.78,46.21,11.12-41.35-26.85-21.07-18.41,7.51.93,28.63-15.46-19.88-15.46-19.88-4.3-31.87,25.13-16.73,31.12-46-19.86,9.94-58.69,8.53-62.43,31.17-1.95,14.29-15.59,41.11-9.86,8.6,2.06-14.07-7-12.32-19.25-9.73-11.09-5.34,43.65-42.78,64.79-38.33-90-18.95-78.39,25.34-68.22,55.64,0,0-17.3-29.94-29-20-8.8,7.49-9.94,8-9.94,8s-1.93-4.74,1.4-14.65c3.45-10.25,34.15-29.87,13.41-34.32,7.44-2.87,16.4-5.55,24.28-9.62,5.7-3,3.89-6.61-2.08-9-35.42-9.5-60,23.12-66.63,50.76-11.27-27-38.36,7.21,5.74-32.2-18.66-3.93-45.31-2.13-54.31-12.1,31.69,3.66,60.51,9,81.55-15.07,19.56-28.27-60.1,18.26-81.5-1.33,40.93-2.42,52.49-6.33,9.59-24.31-78.29-14.61,12-13.44,37.28,5.84,39.71-4.55,69,3.63,105.35,18.87,66.89,12.05,55.76-135.3-26.41-131.07-20.31,1-40.93,12.26-40.93,12.26s.1-4,3.61-12.51c1.63-3.95-2.7-8.47-16.55-7.22-32.32,7.42-26.66-33.95-51.68-16.06-4.37.53-9.41-2.58-14.16-4.09-3.37-9.56,25.34-7.48,21.21-19.54,8.4,7.05,12.31-4.73,18.54-8.53,9.85,3.93-4.44,12.37-7,19.8,43.71,46.15,3.31-45.24-2-65.27,11.13,16.09,42.94,50.76,22.57,4.82l4.28-2c16,19.63,19.24-1,.54-9.49,31.51-.72-14.07-15.72-1-24.2,9.89,4.52,12.69,12.33,16.58,20.26,3,5,14.65,7.64,5.77,15.64,11.64,5.3,4.31,8.91-5.14,11.36-5.05,8.36-9.8,16.83-15.05,26,18.5-.38,17.45,3.54,3.64,12.27C346,496.38,406.7,505.35,372,459c-17.38,12.32-21.7-17.42-1.73-7.69V437c15.37.71-7.83,30.26,18.67,13.88,6.79,8.07-16.61,15.69.34,23.71,8.5-13.78,22.07-23.94,11.92-1.63-10.06,31.6,52.58,26.42,66.87,52,1.33-52.23-61.88-63.68-89-101.08-10.25-16.47-17.67-38.31-34.1-50.5-21.94-15.22-.84-4.32,7.59-16.11,7.63,5.57-5.24,21.82,16.35,10.8-13.41,16.54-7.13,22.06,9.89,36.65,7.59-17.42,14.06-32.27,21.23-48.7,15,11.89-11.2,14.88-4.93,21.2,36.14-2.61,17.23,14-.65,7.57-6.07,15-5.67,19.57,12.84,10.3,3.67,12.44-3.59,19.28-19.35,16.62,6.27,12.55,9.77,27.11,19.52,7.07,9.58,1.49.74,9.9.4,16.42,35.05,22.42,36.44,5.64,39.55-23-15.35-2.62-18.84-6.76-18-22.12,40.71,24.55-20.37-21.6-17.54-37.88-.43-4.22-7.44-8-11.34-11.87,17-15.36,12.78,14.65,27.8-1.72,3.32,21.72-20.11,17.71,19.57,41.74-7.6-25.83-14.31-48.63-21.34-72.5,9,5.09,13.43,17,29.09,6.89,1.39,5.34-4.68,11.72-9.35,14.28-14.78,2,5.44,58.76,14.65,28-5,81.83-6,90.16,39.82,163.21,46.26-63.86-65.38-62.86-17.86-73.62,1.1-22.95-4.73-10.38-16.15-21.48,24.56-19.78,20.93,37.69,40.07,33.08-11.43-32.55-30.7-66-13.93-99.9,1.69-5.78-11.48-19.81-1.12-21.13,23.39,44.27,1.23,19.6,2.27,50.82,20.08-18.31,22-48.45,9.06-71.07-19.36,11-6.85-5-4.39-16-11,2.73-19.32,11.4-24.75,5.71,21.37-30.1,17.82,4,39.28-20-6.53,23.37-3.56,32.56,10.82,53.78,11.85-18.62,3.6-21.06-12.52-34.16,58.52-1.11,4.05,17.75,33.09,26-.13,1.4,0,2.64-.29,2.72-20.68,2.87-47.89,62.78-23.11,54.54-4.89,7.25-4.61,18.09-17.49,15.64,34.24,97.66,47.2,56.61,38.52-17.89-2.6-9,3.71-26.14-13.66-20.55,9.17-10.64-5.45-10.64,5.74-19.44,13.77,4.07,11.67,10.24,10.39,21.55,11.16,1.81,10.71-18,16.33-24.64,5.15-12-17.79-11.21-14.93-23.6,15.57,8.68,17.86-9.18,28.66-7.47C576,314.15,551,383.31,558,381.79c23.09-14.85,25.8-15.61,10-36.27,27.15,2.58,17,16.46,16.57-24,17.45,20.74,6.93,26.26.23,49-1.75,9.88-26.81,19.91-22.16,29.18,20.54-10.33,11.38,21.22-7.49,14.52.76,5.77,1.48,11.22,2.35,17.78,22.71-13.28,6.5,9.52-1.28,18.05,28.48.72,53.71-13.34,55.72-28.94-13.63-.51-20.88-6.2-21-20.15,34.94,15.88,16-12.63-8-11.15,5.48-16.05,35.66,8.28,9.52-24.33C607.4,366,614,398.81,622.1,411.6c17.68-9.62,19.54-14.27,12.15-32,15.77,9,10.22,1.3,11.14-8.74,43.84,6.75,1.51,7.86-.95,29.21-13.45,21.37-26.07,45.27-53.94,56.63-25.81,4.76-76.08,78.07-44.73,62.93,21.75-13.67,71.58-18.35,56.63-44.36,34.79,25-6.56-37.17,23.44-6.22,1.94-1.27-4.82-39,4.53-33.74-8.15,34.82,30.36,18.76-4.86,36.47-23.73,27.49,3,32.48,30.37,15.75,16.29-9.66-2.2-13.41-7.44-25.46,32.88,8.94,1.15-28.27-13.39-34.48h12c-12.92-13.68,8.54-20.56,17.44-38.45,9.88,8.44-23.46,24.84.27,24.46-5.86,5.93-18.31,16.94-7,21.31,4.42-6.36,4.55-17.44,13.84-8.4-27.74,32.51,9.14,22.73,20.9-2.9-2.22,18-44,97.23-6.8,69.67,40.41-46.92,73.38-.54,33.53-12.36-9.39-7.14-14.73-3.26-20.88,5.17,31.57,3,19.6,26.4-1.51,6.86-10.85,14.35-19.56,24.86-44.16,19.69,0,0-19.35-3.72-20.76,1.61C627.05,532.71,623.84,531.27,623.84,531.27Z"/></g><path d="M226.32,854.48c0,6.3.11,11.22.55,16.62l-.11.06A118.86,118.86,0,0,0,220.15,858l-11.79-20.46h-5.19V878h4.48V860.72c0-6.72-.11-11.58-.38-16.68l.16-.06a132.43,132.43,0,0,0,6.88,13.5L226,878h4.81V837.56h-4.48Z"/><path d="M249,855.08c-5.07-2.16-7.31-4-7.31-7.8,0-2.76,1.91-6.06,6.93-6.06a13.65,13.65,0,0,1,7,1.92l1.31-4.26a15.52,15.52,0,0,0-8.13-2c-7.16,0-11.91,4.68-11.91,11,0,5.7,3.72,9.12,9.72,11.46,5,2.1,6.94,4.26,6.94,8,0,4.08-2.84,6.9-7.7,6.9a15.73,15.73,0,0,1-8.52-2.64l-1.2,4.38c2,1.44,5.84,2.58,9.39,2.58,8.68,0,12.89-5.4,12.89-11.64C258.43,861,255.26,857.72,249,855.08Z"/><path d="M279.45,856.34v-.12a9.53,9.53,0,0,0,6.22-8.88,8.81,8.81,0,0,0-3.06-7.14c-2.29-2-5.35-2.94-10.1-2.94a42,42,0,0,0-8.68.84v39.78a50.62,50.62,0,0,0,7.37.48c6,0,10.16-1.2,12.72-3.78a11.42,11.42,0,0,0,3.11-8.1A10.18,10.18,0,0,0,279.45,856.34Zm-10.87-14.7a18.66,18.66,0,0,1,4.21-.36c4.8,0,8.08,1.86,8.08,6.6,0,3.9-2.95,6.78-8,6.78h-4.31Zm4,32.64a23.14,23.14,0,0,1-4-.24V858.62h3.93c5.19,0,9.5,2.28,9.5,7.8C282,872.3,277.48,874.28,272.57,874.28Z"/><path d="M332.9,837.26a50.23,50.23,0,0,0-9.12.78v40h4.75V861.8a14.9,14.9,0,0,0,3.82.36c4.64,0,8.74-1.5,11.25-4.44a12.59,12.59,0,0,0,2.84-8.64,11.4,11.4,0,0,0-3.22-8.46C341,838.46,337.59,837.26,332.9,837.26Zm-.44,20.7a14.57,14.57,0,0,1-3.93-.42V841.82a18.2,18.2,0,0,1,4.48-.42c5.24,0,8.68,2.58,8.68,7.92C341.69,854.9,338.19,858,332.46,858Z"/><path d="M361.4,848.3c-7.32,0-13.1,5.7-13.1,15.42,0,9.18,5.51,14.94,12.66,14.94,6.39,0,13.16-4.68,13.16-15.42C374.12,854.36,369,848.3,361.4,848.3Zm-.22,26.4c-4.69,0-8-4.8-8-11.16,0-5.52,2.46-11.28,8.14-11.28s7.92,6.24,7.92,11.16C369.21,870,365.77,874.7,361.18,874.7Z"/><path d="M383.46,854.66h-.22l-.16-5.7h-4.21c.17,2.7.22,5.64.22,9.06v20h4.75V862.52a16.17,16.17,0,0,1,.22-2.46c.65-4,3.06-6.78,6.44-6.78a6.58,6.58,0,0,1,1.64.18v-5a4.79,4.79,0,0,0-1.37-.18C387.55,848.3,384.66,850.76,383.46,854.66Z"/><path d="M403,840.62l-4.7,1.38v7h-4.09v4h4.09v15.84c0,3.42.49,6,1.86,7.56a6.37,6.37,0,0,0,5.19,2.22,10.75,10.75,0,0,0,4.25-.72l-.21-4a9.8,9.8,0,0,1-2.79.36c-2.67,0-3.6-2-3.6-5.64V853h6.88v-4H403Z"/><path d="M439.69,836.9c-9.82,0-17.09,8.4-17.09,21.24,0,12.24,6.83,20.52,16.55,20.52,9.39,0,17.09-7.38,17.09-21.3C456.24,845.36,449.74,836.9,439.69,836.9Zm-.27,37.5c-7.48,0-11.74-7.74-11.74-16.38,0-8.88,3.93-16.86,11.79-16.86s11.74,8.4,11.74,16.44C451.21,866.78,447,874.4,439.42,874.4Z"/><path d="M465.52,854.66h-.22l-.16-5.7h-4.21c.17,2.7.22,5.64.22,9.06v20h4.75V862.52a16.17,16.17,0,0,1,.22-2.46c.65-4,3.06-6.78,6.44-6.78a6.58,6.58,0,0,1,1.64.18v-5a4.79,4.79,0,0,0-1.37-.18C469.61,848.3,466.72,850.76,465.52,854.66Z"/><path d="M496.2,860.18c0-5.82-2-11.88-10-11.88a15.29,15.29,0,0,0-8.68,2.58l1.09,3.48a12.31,12.31,0,0,1,6.88-2.16c5.4,0,6,4.32,6,6.72v.6c-10.21-.06-15.88,3.78-15.88,10.8,0,4.2,2.73,8.34,8.08,8.34a9.6,9.6,0,0,0,8.08-4.32h.16l.38,3.66h4.37a44.54,44.54,0,0,1-.44-7Zm-4.64,8a6.14,6.14,0,0,1-.27,1.68,6.65,6.65,0,0,1-6.39,4.86c-2.45,0-4.53-1.62-4.53-5,0-5.64,5.95-6.66,11.19-6.54Z"/><path d="M516,848.3a9.62,9.62,0,0,0-8.73,5.46h-.11l-.27-4.8h-4.26c.16,2.4.22,4.86.22,7.86V878h4.8V860.54a8.23,8.23,0,0,1,.33-2.46c.82-2.94,3.27-5.4,6.44-5.4,4.53,0,6.12,3.9,6.12,8.58V878h4.8V860.66C525.36,850.7,519.68,848.3,516,848.3Z"/><path d="M550.42,853.34h-.11a8.7,8.7,0,0,0-8.24-5c-6.06,0-11.9,5.58-11.9,15.42,0,8,4.69,14.16,11.24,14.16a9.26,9.26,0,0,0,8.41-4.86h.11v3.24c0,7.32-3.6,10.14-8.52,10.14a13.92,13.92,0,0,1-7.75-2.28l-1.2,4c2.13,1.56,5.62,2.4,8.79,2.4,3.33,0,7-.84,9.61-3.48s3.77-6.6,3.77-13.26V856.94c0-3.54.1-5.88.21-8h-4.2Zm-.54,12.3a9.79,9.79,0,0,1-.39,2.82,7.12,7.12,0,0,1-6.66,5.4c-5.18,0-7.8-4.74-7.8-10.44,0-6.72,3.27-11,7.86-11,3.49,0,5.84,2.52,6.71,5.58a8.16,8.16,0,0,1,.28,2.4Z"/><path d="M572,848.3c-7.7,0-12.4,6.9-12.4,15.66s4.86,14.64,13,14.64a19.76,19.76,0,0,0,8.79-1.8l-.82-3.78a16,16,0,0,1-7.32,1.5c-4.8,0-9-2.94-9.06-10.08h18.56a20.34,20.34,0,0,0,.17-2.46C582.91,856.64,580.61,848.3,572,848.3Zm-7.75,12.36c.38-3.66,2.51-8.58,7.37-8.58,5.4,0,6.71,5.22,6.66,8.58Z"/><path d="M629.48,837.26a62,62,0,0,0-10.1.84v39.78a69.76,69.76,0,0,0,8.62.48c7.16,0,12.83-2,16.27-5.82s5.3-9.12,5.3-15.72-1.91-11.22-5.19-14.52S636.3,837.26,629.48,837.26Zm-.55,36.9a27.31,27.31,0,0,1-4.8-.3V841.94a24.59,24.59,0,0,1,5.57-.54c10,0,15,6.06,14.9,15.6C644.6,867.92,639.09,874.16,628.93,874.16Z"/><path d="M673.05,860.18c0-5.82-2-11.88-10-11.88a15.32,15.32,0,0,0-8.68,2.58l1.09,3.48a12.34,12.34,0,0,1,6.88-2.16c5.41,0,6,4.32,6,6.72v.6c-10.21-.06-15.89,3.78-15.89,10.8,0,4.2,2.73,8.34,8.08,8.34a9.57,9.57,0,0,0,8.08-4.32h.17l.38,3.66h4.37a44.54,44.54,0,0,1-.44-7Zm-4.64,8a5.8,5.8,0,0,1-.28,1.68,6.64,6.64,0,0,1-6.38,4.86c-2.46,0-4.54-1.62-4.54-5,0-5.64,6-6.66,11.2-6.54Z"/><path d="M690.3,866c-.65,2.1-1.2,4.32-1.69,6.06h-.11c-.44-1.74-1.09-4-1.69-5.94L681,849h-5.24l9.77,26.76a5,5,0,0,1,.33,1.38,4,4,0,0,1-.38,1.26,15.9,15.9,0,0,1-4,5.88,12.36,12.36,0,0,1-4.21,2.58l1.21,4.44a12.63,12.63,0,0,0,5.89-3.42c3.28-3.12,5.62-8.22,9.06-18.18l7.21-20.7h-5.08Z"/><path d="M709.68,840.62,705,842v7h-4.1v4H705v15.84c0,3.42.49,6,1.86,7.56A6.34,6.34,0,0,0,712,878.6a10.81,10.81,0,0,0,4.26-.72l-.22-4a9.77,9.77,0,0,1-2.78.36c-2.68,0-3.61-2-3.61-5.64V853h6.88v-4h-6.88Z"/><path d="M731.74,848.3c-7.31,0-13.1,5.7-13.1,15.42,0,9.18,5.51,14.94,12.67,14.94,6.38,0,13.15-4.68,13.15-15.42C744.46,854.36,739.33,848.3,731.74,848.3Zm-.22,26.4c-4.69,0-8-4.8-8-11.16,0-5.52,2.46-11.28,8.13-11.28s7.92,6.24,7.92,11.16C739.55,870,736.11,874.7,731.52,874.7Z"/><path d="M762.59,848.3a9.61,9.61,0,0,0-8.73,5.46h-.11l-.28-4.8h-4.25c.16,2.4.21,4.86.21,7.86V878h4.81V860.54a8.23,8.23,0,0,1,.33-2.46c.81-2.94,3.27-5.4,6.44-5.4,4.53,0,6.11,3.9,6.11,8.58V878h4.81V860.66C771.93,850.7,766.25,848.3,762.59,848.3Z"/><path d="M797.21,860.18c0-5.82-2-11.88-10.05-11.88a15.32,15.32,0,0,0-8.68,2.58l1.09,3.48a12.34,12.34,0,0,1,6.88-2.16c5.41,0,6,4.32,6,6.72v.6c-10.21-.06-15.89,3.78-15.89,10.8,0,4.2,2.73,8.34,8.08,8.34a9.57,9.57,0,0,0,8.08-4.32h.16l.39,3.66h4.36a45.88,45.88,0,0,1-.43-7Zm-4.64,8a5.8,5.8,0,0,1-.28,1.68,6.64,6.64,0,0,1-6.38,4.86c-2.46,0-4.54-1.62-4.54-5,0-5.64,6-6.66,11.2-6.54Z"/><path d="M222.08,158.37l.65-9.66a33.51,33.51,0,0,1-10.31,1.81q-8.11,0-12.6-5.79A21.74,21.74,0,0,1,195.33,131a22.33,22.33,0,0,1,3.79-13.13q3.78-5.39,11.54-5.39a25.89,25.89,0,0,1,8.63,1.59l1.34-9.7a32.53,32.53,0,0,0-8.83-1.17q-12.68,0-20,8.73a31.1,31.1,0,0,0-7.28,20.54,28.55,28.55,0,0,0,6.86,19.33q6.86,8,20,8A42,42,0,0,0,222.08,158.37Z"/><path d="M258.9,122.41a17.72,17.72,0,0,0-13-5.48,19.07,19.07,0,0,0-14,6q-6,6-6,16.63,0,9.87,5.46,15.31a17.93,17.93,0,0,0,13.11,5.43,19,19,0,0,0,14-6q5.91-6,5.92-16.54Q264.35,127.89,258.9,122.41Zm-7.07,26.3a7.62,7.62,0,0,1-6.59,3.87q-4.17,0-6.76-4.14a18.87,18.87,0,0,1-2.6-10.22,17.23,17.23,0,0,1,2.54-9.66,7.62,7.62,0,0,1,6.59-3.87c2.78,0,5,1.38,6.77,4.14a18.91,18.91,0,0,1,2.6,10.23A17.14,17.14,0,0,1,251.83,148.71Z"/><path d="M303.17,118.69l-10.31.38q.45,7.89.46,30a12.81,12.81,0,0,1-7.72,2.35,5.36,5.36,0,0,1-5.49-3.57q-1.39-3.57-1.39-13.85,0-7.23.61-15.29l-10.66.42q.72,10.2.72,14.87c0,1.17,0,2.54-.05,4.11s-.06,2.79-.06,3.65q0,10.88,3.19,14.51t9.5,3.63a16.89,16.89,0,0,0,11.69-4.53h.61a14.54,14.54,0,0,0,.61,3.61l8.94-.34a190.65,190.65,0,0,1-1-19.35Q302.79,126.63,303.17,118.69Z"/><path d="M328.43,125.87a6.34,6.34,0,0,1,5.41,2.35q1.79,2.35,1.78,8.95,0,10.88-.84,21.5h10.16q-.19-13.9-.19-19.57c0-1.43,0-2.82.1-4.18s.09-2.44.09-3.25q0-8.19-3.53-11.24t-9.42-3a17,17,0,0,0-12,5h-.61l-.65-4.45-9.78,1.18A91.76,91.76,0,0,1,310.78,138q0,7.52-.69,20.66h10.28q0-13.15-.19-29.52A12.62,12.62,0,0,1,328.43,125.87Z"/><path d="M366.19,134a23.33,23.33,0,0,1-5.31-2.71,3.49,3.49,0,0,1-1.3-2.84q0-3.43,6.11-3.44a23.51,23.51,0,0,1,9.33,1.85l1.3-8.32a34.78,34.78,0,0,0-10.63-1.3q-7.21,0-11,3.4a11.52,11.52,0,0,0-3.78,9,10.55,10.55,0,0,0,3.51,8,30.17,30.17,0,0,0,8.18,4.79q6.42,2.78,6.42,5.83a2.89,2.89,0,0,1-1.78,2.82q-1.77.84-6.36.84a25.75,25.75,0,0,1-9.52-1.89l-1.3,8.27a35.84,35.84,0,0,0,10.82,1.47q17,0,17-12.6a11.25,11.25,0,0,0-3.6-8.61A26.66,26.66,0,0,0,366.19,134Z"/><path d="M400.35,117.05q-8.87,0-13.85,6.57a25,25,0,0,0-5,15.52,21.7,21.7,0,0,0,5.25,14.66q5.25,6.07,15.11,6.08a35.47,35.47,0,0,0,13.07-2.1l.77-8.14a43.5,43.5,0,0,1-12.19,1.89,11.3,11.3,0,0,1-8.33-3.15,12.78,12.78,0,0,1-3.71-7.9L416.1,140c.15-2.29.23-4.16.23-5.58q0-7.73-3.94-12.56T400.35,117.05Zm-8.94,17.35q1.33-10,8.49-10,7.49,0,7.49,9.66Z"/><path d="M422.63,158.67h10.44q-.58-14.32-.58-31.2,0-16.64.58-28.52L422,99.63a276.56,276.56,0,0,1,1.19,27.84Q423.21,144.26,422.63,158.67Z"/><path d="M446.14,113.23a6.05,6.05,0,0,0,4.94-2.14,7.56,7.56,0,0,0,1.78-5,6.8,6.8,0,0,0-1.47-4.39,5.08,5.08,0,0,0-4.18-1.82,6.18,6.18,0,0,0-5,2.1,7.4,7.4,0,0,0-1.78,5,6.83,6.83,0,0,0,1.51,4.45A5.09,5.09,0,0,0,446.14,113.23Z"/><path d="M440.82,158.67H451.1q-.53-9.16-.53-19.95,0-12.65.5-20.79l-11,1.22a129,129,0,0,1,1.3,19.57Q441.36,150,440.82,158.67Z"/><path d="M468.15,158.67q0-13.15-.19-29.52a12.62,12.62,0,0,1,8.25-3.28,6.35,6.35,0,0,1,5.41,2.35c1.18,1.57,1.78,4.55,1.78,8.95q0,10.88-.84,21.5h10.16q-.2-13.9-.19-19.57c0-1.43,0-2.82.09-4.18s.1-2.44.1-3.25q0-8.19-3.53-11.24t-9.42-3a17,17,0,0,0-12,5h-.61l-.65-4.45-9.78,1.18A92.45,92.45,0,0,1,458.56,138q0,7.52-.69,20.66Z"/><path d="M536.32,162.82q0-11.46-15.32-11.46-8.87,0-11.29-1a3.62,3.62,0,0,1-2.43-3.59,3,3,0,0,1,2-2.64,25.52,25.52,0,0,0,6.39.67q8,0,12-4.24a14.35,14.35,0,0,0,4-10.25,11.83,11.83,0,0,0-2.26-7v-.55c1-1.26,3.48-1.89,7.45-1.89l.84-7.81a9.39,9.39,0,0,0-4.35-1q-6.31,0-7.42,7.94h-.53a17.48,17.48,0,0,0-9.86-2.52q-8.91,0-13.16,4.16a13.8,13.8,0,0,0-4.26,10.33,11.3,11.3,0,0,0,6.19,10.62v.59q-4.39,3.1-4.4,7.73t3.21,6.8v.63a8,8,0,0,0-4.64,3.25,10.47,10.47,0,0,0-2,6.49q0,12.35,17.89,12.35a25.29,25.29,0,0,0,15.51-4.75A15.14,15.14,0,0,0,536.32,162.82Zm-26.27-37.26a7.32,7.32,0,0,1,5-1.91,7.4,7.4,0,0,1,5.08,2,7.32,7.32,0,0,1,2.21,5.75,6.89,6.89,0,0,1-2.16,5.52,7.29,7.29,0,0,1-4.94,1.87,7.57,7.57,0,0,1-5.16-1.93,8.35,8.35,0,0,1-.06-11.27Zm13.66,46.38q-3.16,2.26-8.63,2.26-9.8,0-9.79-8.06a7.25,7.25,0,0,1,3.37-6.51q4.35.42,8.63.42c3.52,0,6,.46,7.43,1.39a4.93,4.93,0,0,1,2.16,4.49A7,7,0,0,1,523.71,171.94Z"/><polygon points="538.42 141.45 554.78 140.82 555.24 133.26 538.77 133.89 538.42 141.45"/><path d="M553.67,113.06q9.41-.66,14.79-.67.15,8.1.16,17.68,0,15.24-.5,28.6h10.7q-.42-13.48-.42-28.6,0-9.73.07-17.68,6.76,0,14.41.63l.27-9H554Z"/><path d="M620.17,128.2q1.71,2.33,1.71,9.81,0,10-.84,20.66h10.17q-.19-13.9-.19-20.92c0-.53,0-1.61.09-3.25s.1-2.72.1-3.25q0-7.73-3.5-10.8t-9.65-3.06a15.83,15.83,0,0,0-11.54,5.08H606q0-10,.57-23.52l-10.81.68A270,270,0,0,1,597,127.47q0,18.18-.42,31.2h10.16q-.37-11.89-.38-29.73a13.35,13.35,0,0,1,8.18-3.07Q618.44,125.87,620.17,128.2Z"/><path d="M656.89,159.88a35.51,35.51,0,0,0,13.07-2.1l.76-8.14a43.44,43.44,0,0,1-12.19,1.89,11.31,11.31,0,0,1-8.33-3.15,12.77,12.77,0,0,1-3.7-7.9l24.6-.46c.16-2.29.23-4.16.23-5.58q0-7.73-3.93-12.56t-12-4.83q-8.86,0-13.85,6.57a24.94,24.94,0,0,0-5,15.52,21.66,21.66,0,0,0,5.26,14.66Q647,159.88,656.89,159.88Zm-2-35.48q7.49,0,7.49,9.66l-16,.34Q647.75,124.4,654.9,124.4Z"/><path d="M676.57,158.67h10.16q-.22-9-.23-25.79,1.8-5.53,7.42-5.54a14,14,0,0,1,5.73,1.26l2.22-9.83a16.9,16.9,0,0,0-6.19-1.38q-5.85,0-9.37,5.92h-.61c0-.53-.21-2.34-.65-5.42l-9.74,1.18A90.69,90.69,0,0,1,677.22,138Q677.22,146,676.57,158.67Z"/><path d="M708.69,138.59a13,13,0,0,0-4.91,10.46,10.07,10.07,0,0,0,3.15,7.75,11.25,11.25,0,0,0,7.93,2.92q7.15,0,11.35-3.95h.5a9.8,9.8,0,0,0,.61,3.19l9-.34a67.58,67.58,0,0,1-1.23-14.23q0-1.56.14-6.22t.13-6.42q0-8-3.76-11.17t-10.68-3.19q-9.48,0-14.68,2l-.84,7.73a38.43,38.43,0,0,1,11.28-1.68q5.31,0,7.29,1.45c1.33,1,2,3,2,6,0,.45,0,.93-.07,1.43Q713.6,134.52,708.69,138.59Zm17.44,11.3a11.47,11.47,0,0,1-7.52,2.48c-3.82,0-5.74-1.67-5.74-5q0-7.26,13-7.26Q725.91,144.22,726.13,149.89Z"/><path d="M774.7,123.16a13.64,13.64,0,0,0-11.61-5.81q-7,0-11.12,4.15h-.61l-.58-3.61L741,119.07q2,10.67,2,31,0,15.75-.69,27.8h10.39q-.26-10.55-.26-20.83h.45c1.53,1.9,4.34,2.85,8.41,2.85a14.92,14.92,0,0,0,13-6.88A27.6,27.6,0,0,0,779,137,22.67,22.67,0,0,0,774.7,123.16Zm-8.33,25a8.15,8.15,0,0,1-7.52,4.13,9.2,9.2,0,0,1-6.23-2.06q0-9.83-.58-21.62c1.63-2.27,4.21-3.4,7.72-3.4a7.47,7.47,0,0,1,6.65,3.82,16.69,16.69,0,0,1,2.41,9.11A19.38,19.38,0,0,1,766.37,148.11Z"/><path d="M807,118.77q0,3.54-3.15,15.48t-3.15,14.38h-.54q0-2.85-3.47-15.62t-3.48-14.24H781.43q0,.81,6.88,17.66t6.88,21.86a10.49,10.49,0,0,1-3.06,7.91,10.73,10.73,0,0,1-7.8,3l.77,8.11q8.1,0,12.15-3.86t6.69-14.49q1.45-6.09,7.68-22.85,5.46-14.56,5.46-17.3Z"/></g></svg>